<?xml version="1.0" encoding="UTF-8"?>
<svg id="Layer_1" data-name="Layer 1" xmlns="http://www.w3.org/2000/svg" viewBox="0 0 1629.82168 2451.0638">
  <path d="m1595.30871,1959.0927l.041-.0415.4151-.4562.8707-.9542c2.3642-2.5707,4.7693-5.1009,6.8844-7.9206,4.4787-5.4745,8.2942-11.5291,11.8191-17.7913,6.7598-12.6898,11.6536-26.7901,13.4781-41.6371,2.0321-14.7634.9538-30.232-2.9858-45.12-3.9395-14.8885-11.2385-29.1127-21.1091-41.388-7.2159-8.9994-15.6757-16.796-24.7581-23.3903-4.5617-3.2758-9.331-6.2621-14.1828-8.9573-2.4471-1.3274-4.9348-2.6127-7.4235-3.774l-1.4929-.6637-.0415-.0415.1656-.3731,2.5717-6.9674c.6631-2.3636,1.4098-4.7272,1.9905-7.1329.4561-2.4051,1.0368-4.7688,1.4099-7.2159,1.4513-9.6626,1.2443-19.4497-.4562-28.9052-3.3179-18.8696-12.9804-36.0796-26.5-48.3549-13.4781-12.3173-30.5227-19.6162-47.4842-21.6068-8.4602-1.0367-16.92-.7882-25.0487.5392-2.032.3321-4.064.7047-6.0136,1.2443l-2.9858.7047-.7046.2076c-.2491.0415-.1661.0415-.2491.083l-.3316.083c-.9127.2486-1.6174.7877-1.8665.6632.083-.3316.2076-.7047.2491-1.1198l.1245-.7462c.2076-1.2859.3316-2.6127.4561-3.8981.4561-5.1838.2486-10.4507-.7467-15.5101-1.949-10.1607-7.1329-19.3262-14.0997-25.9194-6.9674-6.7188-15.4687-11.1145-24.095-13.1055-4.3131-.9953-8.6673-1.5339-12.8974-1.4924-5.4324.1655-5.3084.3316-6.9258.7047.0415-.7462.1245-1.5344.083-2.3226l-.0415-2.6952c-.0415-1.1198-.0831-2.2396-.2491-3.3594-.4141-4.4787-1.2853-8.7504-2.6122-12.7729-2.6127-8.0457-6.8013-15.0125-11.6951-20.5285-9.8696-11.114-22.2694-16.2148-32.1816-17.7493-1.783-.249-3.4834-.4146-5.1424-.5391.2491-13.2705-3.4834-25.3393-9.2064-34.2136-7.8381-12.4413-18.9526-18.662-26.7486-20.2379-1.659-.3731-3.1934-.5807-4.5623-.6637.2906-.2075.5812-.4561.8713-.7047,7.4645-6.3867,18.4134-15.9667,31.1858-29.6109,12.7734-13.6436,27.6619-31.1448,42.8814-52.9996,15.1365-21.8968,30.3571-48.3554,43.4616-79.3341,13.022-30.8958,23.7628-66.4783,29.3618-105.7097.9953-9.8701,1.9906-19.9063,3.0273-30.0665.9538-10.2848.8293-20.7356.6632-31.2694-.2901-9.9116-.8292-19.9478-1.7415-30.0665.2486-.5391.4972-1.0783.7878-1.6174,3.6494-6.9259,6.9668-14.971,10.8654-23.6798,3.4834-8.8749,7.3819-18.4965,10.8653-29.0713,7.1329-21.1086,13.7687-45.7012,18.5375-73.404,4.8108-27.6609,7.465-58.4736,7.0504-91.5264-.2486-16.5885-1.2854-33.633-2.9863-51.0922-1.6585-17.5006-3.9811-35.4579-7.34-53.7878-3.4419-18.2889-8.0041-36.9098-14.2663-55.5303-6.2622-18.5789-14.2658-37.1579-25.0902-54.7416-3.898-6.3867-8.2112-12.6073-12.8969-18.5789-.2491-1.2444-.4981-2.4882-.7467-3.815-4.2711-21.3167-11.4046-52.171-25.8779-88.6242-7.4645-18.1223-16.7955-37.531-29.1128-57.2297-12.3998-19.5747-28.2415-39.1075-48.1478-56.3175-2.5297-2.0736-4.8103-4.5207-7.5895-6.3867-2.6952-1.9491-5.4325-3.9396-8.1697-5.8891-2.7782-1.949-5.3909-4.1056-8.3357-5.8476-2.9443-1.6999-5.9301-3.4419-8.9159-5.1839-3.0273-1.6999-5.9721-3.5249-9.0824-5.1008-3.1929-1.4514-6.3862-2.8613-9.6211-4.3132-3.1933-1.4098-6.4282-2.8612-9.7046-4.3126-3.3174-1.1613-6.6762-2.3636-10.0356-3.5249-1.4519-.4982-2.9028-.9953-4.3547-1.4519-7.1329-9.5796-14.971-18.7035-23.3477-27.2878-16.7545-16.837-35.5825-31.8915-56.069-44.2083-20.3629-12.4828-42.3423-22.4355-65.1929-29.8174-22.85-7.3405-46.3648-11.8197-69.754-15.4687-46.9871-6.5527-93.9321-10.6168-141.0016-12.9804-40.3928-2.2811-80.8271-4.2717-121.2614-5.3915v-.7467c7.382-4.0225,12.3999-11.8189,12.3999-20.7768,0-6.5109-2.6543-12.3998-6.9259-16.6711-1.7835-1.7833-3.857-3.2764-6.1376-4.396-.3316-19.8232-.7052-36.7435-1.0783-50.5532,8.3357-3.608,14.1418-11.9022,14.1418-21.565,0-.8295-.0416-1.7004-3.6495-12.5658,3.857-5.9304,7.0089-12.939,8.6673-20.8598,2.1566-10.6997,2.1151-22.9337-2.1151-34.7528-1.949-5.9303-4.9763-11.6949-8.8333-17.003-3.774-5.35-8.5013-10.2435-14.0588-14.2661-6.5937-5.0596-14.4318-8.8333-22.8506-10.9899,2.1151-1.3686,4.1886-3.1519,6.0962-5.4327,2.6132-3.1519,4.8528-7.2159,5.848-11.9852.9953-4.769.9538-10.2017-.9127-15.4686-.8708-2.6542-2.1976-5.1839-3.9401-7.5478-1.6584-2.4054-3.7735-4.5617-6.2206-6.3452-4.8518-3.6907-11.1555-5.8058-17.6252-5.8888-6.4277.083-12.7309,2.1981-17.5837,5.8888-2.4462,1.7835-4.5612,3.9398-6.2207,6.3452-1.7414,2.3639-3.0688,4.8936-3.9395,7.5478-1.866,5.2669-1.9075,10.6996-.9123,15.4686.9953,4.7693,3.2349,8.8333,5.8471,11.9852,1.908,2.2808,3.9815,4.0641,6.0966,5.3912-8.3772,2.1981-16.2153,5.9718-22.8506,11.0314-5.557,4.0226-10.2847,8.9161-14.0587,14.2661-3.8566,5.3081-6.8839,11.0727-8.8334,17.003-4.2296,11.8191-4.2711,24.0531-2.1145,34.7528,1.6584,7.9208,4.8102,14.9294,8.6668,20.8598-2.3222,3.6494-3.649,7.9626-3.649,12.5658,0,6.511,2.6537,12.3998,6.9253,16.6715,2.0321,2.032,4.4792,3.7322,7.216,4.8935-.3731,13.7684-.7462,30.6884-1.0783,50.5117-7.7131,3.8568-13.063,11.8607-13.063,21.1086,0,6.511,2.6537,12.4001,6.9253,16.6712,1.6175,1.618,3.4425,3.0273,5.4745,4.1056-.8707,60.5482-1.6589,139.4262-2.2811,232.5285-6.0961,4.2301-10.1187,11.3215-10.1187,19.3257,0,6.5107,2.6537,12.3998,6.9253,16.6709.9123.9128,1.866,1.742,2.9028,2.4472-.0415,12.6488-.124,25.5043-.207,38.6098v5.4324c-.0831,16.3814-.1656,33.0523-.2486,50.0969-.4151,72.5328-.7052,150.9547-.9122,233.9383-5.1839,4.3127-8.4603,10.8239-8.4603,18.0813,0,6.5113,2.6537,12.3998,6.9253,16.63.4567.4561.9538.9122,1.4519,1.3273-.166,71.3715-.3321,145.8534-.3736,222.6579-.0415,30.3156-.0415,60.9622-.0415,91.8995-4.8933,4.2716-7.9621,10.5753-7.9621,17.5842,0,6.5107,2.6537,12.3998,6.9253,16.6709.3321.3321.6637.6642,1.0368.9543,0,60.9207.0415,121.6344.1245,181.5598-.7877-.9952-1.6999-2.1565-2.8197-3.4834-3.8155-4.5617-9.6631-11.1555-17.8328-19.3256-8.1281-8.1697-18.6204-17.8738-31.6839-28.3661-3.3589-2.6957-6.8843-5.4324-10.6163-8.2112-1.1198-6.6353-1.3274-13.3951-1.2028-20.1133.29-18.0404,3.1103-36.0381,8.4187-53.2908,10.2847-34.6692,27.5778-66.8093,37.738-101.645,7.0089-24.095,10.2438-49.1847,10.2438-74.2333,0-11.197-.6637-22.353-1.8665-33.4675-4.0641-35.9965-13.4781-71.496-28.9467-104.3408-7.6306-16.4638-16.5885-32.2646-26.1265-47.6502-4.7693-7.6725-9.7041-15.303-14.7224-22.809-4.9353-7.6311-10.3263-14.8885-14.4319-22.7676-4.1471-7.8796-7.3404-16.2984-8.8333-25.0072-1.5759-8.7093-1.3274-17.6667.1245-26.4585,2.9858-17.5422,10.9479-33.9651,18.0813-50.512,14.1833-33.1768,33.0523-63.9896,52.378-94.5127,4.8103-7.63,9.8286-15.2195,13.9342-23.4722,4.1886-8.2112,7.0504-17.2106,8.3772-26.3341.8298-5.1013,1.2024-10.2022,1.2024-15.3446,0-13.146-2.5292-26.2925-6.8424-38.6092-.0415-.1661-.1245-.2901-.166-.4562l-6.5112-18.4959,2.198,19.4912c0,.166.0416.3316.0416.4976,1.8659,17.0031.3736,34.5037-5.3085,50.5945-3.898,11.239-9.7866,21.7313-17.2931,30.9378,4.0641-8.9579,7.2575-18.3304,9.6216-27.8685,3.7735-14.7639,5.764-30.108,4.9763-45.4526-.3736-7.672-1.4104-15.3031-3.1933-22.8091-1.7005-7.5475-4.4792-14.6804-6.4698-21.7723-3.815-13.9757-5.9715-28.5736-6.9253-43.1715,0-.2485-.0415-.5386-.0415-.7877l-1.0783-17.2106-4.1471,16.713c-.083.2486-.1245.5391-.1661.7877-1.6169,6.5938-2.5711,13.3541-2.7782,20.1964-.2491,7.0499.4971,14.2248,1.7415,21.0261,1.2858,6.8423,2.115,13.146.9122,19.5742-.3731,2.1151-.8707,4.2301-1.5339,6.2622-.2075-5.2669-.8712-10.4923-1.9905-15.6347-1.0783-4.7693-2.5717-9.497-4.4792-14.0172-1.9075-4.5617-4.3132-8.8334-6.6358-12.939-9.1649-15.9247-14.0997-33.8815-15.8412-52.1709-.0415-.2486-.0415-.4971-.083-.7462l-2.1151-23.0581-3.733,22.8506c-.041.249-.0825.4981-.124.7467-1.2854,8.0871-2.2391,16.2983-2.8203,24.5095-.2485,3.815-.207,7.6305-.29,11.446l-2.7788-6.3036c-2.7367-6.3037-5.681-12.5244-8.2112-18.9111l-14.6394-38.5268-4.39573-11.57-1.7419,12.1927c-.083.4556-.1246.9538-.1661,1.4099-1.2438,9.4965-1.20227,19.1596.0415,28.6981-9.1234-15.8422-16.21477-32.8867-21.0256-50.5119l-3.6909-13.5611-2.8198,13.7681c-.083.4982-.20748.9953-.2491,1.4934-1.6999,9.4556-1.3273,19.2422.9953,28.5731-7.382-7.589-13.76868-16.1317-18.911-25.3797-7.3815-13.1465-12.1508-27.7859-14.0583-42.7569l-1.9075-14.7224-4.9353,14.0172c-.1655.4976-.33158.9543-.4561,1.4514-4.0641,12.3583-4.4792,25.8779-1.4104,38.5268-19.8643-18.3299-35.4575-41.1805-44.7054-66.5613l-4.0231-10.9894-2.8197,11.363c-.1661.6632-.3321,1.3269-.4147,1.9905-1.7834,8.2527-1.7004,16.879.2486,25.0487.9538,4.0226,2.3641,7.8791,4.1886,11.5706-7.2989-4.6037-14.0582-10.0777-20.0303-16.3399-9.2485-9.5795-16.5469-21.0671-21.4407-33.5084l-3.649-9.2895-3.1933,9.4966c-.24908.7467-.4982,1.4929-.6642,2.2806-1.783,6.4697-1.783,13.4781.083,19.9478.6227,2.1981,1.4104,4.3131,2.4056,6.3452-23.2242-12.8974-43.5861-31.0203-58.8471-52.7926l-6.5943-9.3725-.16608,11.4876c0,.7462,0,1.4929.04158,2.1981.083,8.9158,1.78342,17.8322,4.9768,26.1679.9122,2.4052,1.949,4.7278,3.1103,7.0504-26.0439-19.6987-49.1431-43.2545-68.3032-69.63l-8.2112-11.3216,1.3274,13.9338c.0415.6226.1245,1.2858.2075,1.908,1.4924,12.6483,5.598,24.9241,11.9847,35.914l-43.1295-29.1127c-20.9431-13.9342-41.388-28.6151-61.9995-43.047l-122.2151-86.1355-1.1613-.8294-16.837-11.9022,11.15551,17.2936c.24909.4146.49759.788.78769,1.2026,24.1364,37.5727,44.955,77.3436,61.958,118.6901,8.5428,20.9426,16.2984,42.0517,22.436,63.7825,4.2301,14.6394,8.1697,29.3619,11.8607,44.1668-9.2895-11.1975-20.487-20.8186-32.9698-28.3246-.33159-.2075-.6217-.3736-.9538-.5811l-25.5043-15.0535,20.40351,21.4402c.249.2906.49759.5391.74619.8292,5.4744,5.8066,10.2852,12.2343,14.39081,19.0356,4.35419,7.0914,7.79659,14.7639,10.49179,22.643,3.816,11.4461,5.8066,23.5143,5.8896,35.5825-8.2942-13.1465-18.7865-24.9656-30.8132-34.7948-.3731-.3311-.7467-.6631-1.1198-.9537l-16.547-13.3121,10.4918,18.4544c.2491.4152.4982.8298.7057,1.2859,13.8507,24.6336,23.8459,51.4657,29.5269,79.1686-7.2159-10.9489-16.4639-20.6115-27.2047-28.159-.29009-.2076-.6222-.4566-.9543-.6637l-21.64779-14.8049,16.25689,20.5279c.2485.2906.45611.6222.7052.9123,12.0677,15.5516,19.9063,34.3381,22.1038,53.8708,1.7835,15.0956.20711,30.5647-4.3126,45.1206-.3736-2.4467-.7057-4.8938-.95429-7.3815-.82921-7.2989-1.07771-14.5149-1.61741-22.1874-.4971-7.7961-2.5707-15.8002-6.0961-22.8506-3.3179-6.8838-7.8381-13.1045-12.89749-18.6205-.16551-.2075-.37311-.3731-.53911-.5801l-25.6703-27.7444,19.5742,32.3471c.1245.2076.249.4151.3731.6637,7.0504,11.8606,11.156,25.3802,11.4045,39.1074.33161,14.0582-3.40039,28.1175-5.34939,43.047-.95431,7.423-1.32741,15.137-.53971,22.7675.74671,7.423,2.48871,14.7635,5.0594,21.7308-2.4462-5.4739-4.2711-11.2805-5.6395-17.2521-2.4057-10.4092-4.6037-21.6062-9.1655-32.0155-4.3126-10.1602-10.28469-19.4912-17.2936-27.8684-.207-.2491-.41409-.4982-.6216-.7467l-17.9158-20.9841,11.7781,24.9656c.1246.2901.2486.5802.3731.8708,8.6673,18.6619,14.1418,38.8168,15.8002,59.3453.4567,5.2249.6222,10.4503.9123,15.8827.37361,5.433.8712,10.8659,1.7009,16.2158,1.5755,10.7819,4.1472,21.3572,7.506,31.6835,6.8014,20.6525,16.2984,40.2682,28.9468,58.0595,7.506,10.4923,16.1738,20.1138,25.6708,28.8221-7.29889-4.1881-14.0592-9.1649-20.19689-14.8874-6.22061-5.8066-11.57011-12.3998-16.46391-19.5332-4.8933-7.1744-9.5385-14.4734-13.47809-22.0624-3.981-7.631-7.04981-15.6347-10.11871-23.8874-3.02729-8.2112-6.5527-16.796-11.5705-24.385-9.6631-15.0955-22.9752-27.4953-37.8631-37.0338-.2071-.1661-.4562-.3316-.66369-.4562l-23.76281-15.0955,19.4911,20.2794c.1661.2071.3736.3731.53971.5807,16.42239,17.2106,29.52689,37.4485,37.90409,59.7184,4.3962,11.2385,7.8801,22.9746,12.4413,34.5037,4.5207,11.5706,10.5753,22.726,18.0818,32.7207,7.382,10.2847,17.0441,18.4549,26.2095,26.4586,9.207,8.0036,18.745,15.9252,28.6567,23.2236,11.1554,8.2533,22.6845,15.9663,34.6282,23.0167-9.1655-3.857-17.8323-8.5843-26.2925-14.0173-8.7924-5.5989-17.9573-11.0729-27.3713-15.8007-9.2065-4.6442-18.7035-8.7913-28.4486-12.3583-.2076-.083-.4151-.166-.6227-.249l-19.6987-7.216,17.2936,12.0688c.166.124.33161.2485.49761.3311,16.42239,11.4875,33.42589,22.3534,49.10209,34.8362,7.9621,6.1792,15.4686,13.0215,23.7213,19.2422,8.2527,6.1376,16.796,11.8611,25.7119,17.0035,17.7912,10.2847,36.9924,18.2469,56.9812,23.2647,13.27052,3.3179,26.8316,5.3084,40.4758,5.9306-25.2558,4.1471-51.5068,2.1981-75.8508-5.6815-.12448-.0415-.29-.0831-.4141-.1246l-20.32138-6.6352,18.53748,10.6578c.12452.083.249.1245.3736.2076,30.9372,17.7497,67.34892,27.7029,103.304,23.1826,17.7082-2.4056,35.29192-5.3084,52.7516-9.0824,17.4596-3.691,34.7527-7.9626,52.0458-12.0682,17.3352-4.1056,34.5457-8.5013,52.0464-10.9894,17.4592-2.4472,35.3749-2.9033,52.5025,1.1613,17.12762,3.9811,32.5547,13.5191,45.53512,25.3797,13.0635,11.8612,24.0529,25.961,33.633,40.8494,9.6216,14.888,17.5422,30.8128,23.7628,47.4427,6.1792,16.5884,10.8244,33.8405,12.7734,51.4657,1.9491,17.5837,1.2854,35.4575-.7467,53.0827-1.8665,17.6667-5.0178,35.1673-9.2479,52.4609-4.1886,17.2521-9.5796,34.2137-16.0493,50.8021-6.3452,16.5884-14.6809,32.4301-20.611,49.2261-3.2764,8.8749-6.2207,17.9158-8.7508,27.0807-1.783-3.9395-4.6858-7.7135-8.1697-10.4508-1.9075-1.5344-3.898-2.8612-5.9716-3.981,4.2716-5.4745,6.4697-12.7734,6.0131-20.1139-.3316-8.2112-4.6857-16.5054-11.4876-21.8548-6.84233-5.3499-14.92942-7.8796-22.56002-9.7871-7.5895-1.9075-15.1785-3.1519-22.8091-4.3962-11.446-1.8245-22.7675-2.9028-34.089-3.9395,9.331-8.5018,18.745-16.9206,28.159-25.3393,5.1423-4.6442,7.0498-12.6069,4.3956-19.3667-.6221-1.6589-1.5759-3.2348-2.69568-4.6862l-.87072-1.0368-.6637-.7467-1.2853-1.4514-5.2254-5.806c-7.0504-7.6306-13.9763-15.4271-21.1092-22.9746-14.2242-15.1786-28.5316-30.1911-43.254-44.8715-6.0546-6.1381-15.7592-7.8801-23.5142-4.4377-1.9906.8292-3.7741,1.9905-5.391,3.3594l-1.1613,1.0783-.70518.7462-1.32682,1.4099-5.433,5.5985-21.44018,22.643c-14.14182,15.2206-28.076,30.6477-41.92772,46.1578-4.7687,5.0593-5.764,12.8144-2.8612,18.662.6631,1.4514,1.6584,2.7782,2.6952,3.981,1.2443,1.2859,2.0325,1.866,3.0693,2.8198l5.7645,5.2254c6.88392,6.3037,13.8097,12.5243,20.611,18.911-11.69508,1.2444-23.3482,2.9028-34.9598,4.8518-7.5895,1.3274-15.013,2.5717-22.6435,4.1886-7.8381,1.825-15.7172,4.3962-22.6846,9.3725-3.4004,2.4887-6.55218,5.8476-8.5017,9.7046-2.0321,3.732-3.0689,7.8791-3.3174,11.9847-.4982,7.3405,1.69992,14.6809,5.9716,20.1139-2.0321,1.0783-4.0641,2.4051-5.9716,3.9395-3.65,2.9443-6.6773,6.9674-8.4603,11.1145-1.866,4.1881-2.9027,8.6258-2.9443,13.0635-.166,6.4277,1.3684,12.7729,4.4372,18.1223-2.2391,1.2443-4.5202,2.4056-6.8013,3.6915l-6.4282,3.6074c-4.3127,2.4472-8.5013,5.1009-12.8139,7.6726-16.962,10.5753-33.675,22.5185-49.76528,35.9136-16.04982,13.4365-31.89152,27.9514-46.36531,44.3328l-5.5565,6.0546-5.2669,6.3867c-3.484,4.2711-6.9674,8.5843-10.49229,12.8974-3.27641,4.5207-6.55281,9.0819-9.82861,13.6442l-4.93539,6.8838-4.52021,7.2159c-3.0273,4.8108-6.0551,9.6631-9.0824,14.5149-2.6952,5.0598-5.43239,10.1192-8.1282,15.2201l-4.1055,7.672c-1.3274,2.6132-2.4052,5.3084-3.608,7.9626-2.3636,5.3084-4.7278,10.6994-7.1329,16.0493-2.3636,5.3914-4.0646,11.0724-6.1381,16.5884-1.866,5.64-4.1882,11.1555-5.7226,16.9205-2.9858,11.5286-6.7188,23.0162-8.6678,34.9598-19.4912,94.7613-4.0641,202.2129,49.2682,293.6983l7.4644,12.3583c2.5712,4.0641,5.4325,7.9621,8.1287,11.9432,5.26641,8.0872,11.5286,15.3861,17.4177,22.9336,12.15071,14.6394,25.0901,28.159,38.0701,41.3881,26.0855,26.3345,52.7511,50.8435,77.0951,76.3483,24.2604,25.5878,47.028,51.9218,67.1413,79.0436,20.1549,27.1222,37.4485,55.4473,50.7606,84.56,6.5527,14.5564,11.9437,29.4854,16.7544,44.4984,2.40522,7.506,4.6863,15.0125,6.8839,22.5185l1.6179,5.6405.8292,2.8197.3731,1.3689.29012,1.0368c.70518,3.2758,1.32738,7.2574,1.94948,11.0724,1.2854,7.6721,2.6957,15.4271,4.6033,23.1822.9537,3.8985,2.0735,7.7966,3.5249,11.6946,1.5344,3.9401,3.1518,7.9216,6.3452,12.0687.8297.9953,1.7419,2.0321,2.9858,3.0273,1.28532,1.1614,2.8202,2.0321,4.4372,2.6953,1.5764.6636,3.3178.9122,5.0183.9952,1.9075-.1245,3.4004-.0415,4.89382-.5801,3.06878-.7882,5.764-2.4057,7.75458-4.1886,2.0735-1.7835,3.5669-3.7325,4.8523-5.6821,2.57112-3.8565,4.1886-7.6715,5.5569-11.446,1.3689-3.732,2.44722-7.4645,3.401-11.0725.9537-3.5664,1.8244-7.2159,2.69522-10.1602,1.07828-3.1933,2.23958-6.4282,3.52538-9.58,2.6127-6.3452,5.5985-12.5659,8.7088-18.7865,3.1934-6.3037,6.3452-12.5244,9.4556-18.7035,3.1103-6.1792,5.972-12.98,8.4597-19.1176,4.9353-11.6121,11.7781-23.0166,18.3719-33.9651,6.7183-10.9069,13.51962-21.4822,20.4039-31.7254,27.4123-41.015,53.74642-77.2191,76.76302-109.0276,23.2647-31.6834,43.2955-58.9717,59.6764-81.2416,7.8386-10.6164,14.847-20.1134,20.9016-28.4076.3736,56.7321.7462,109.4422,1.1613,157.1749-6.7598,4.1471-11.2385,11.5706-11.2385,20.0723,0,6.5113,2.6537,12.3998,6.9253,16.6715,1.4104,1.4099,2.9443,2.6127,4.6863,3.6079.4561,47.4017.9542,88.8312,1.4514,123.0864-7.7131,3.8565-13.063,11.8601-13.063,21.1081,0,6.5112,2.6537,12.4003,6.9253,16.6714,1.9491,1.9905,4.3132,3.6085,6.8844,4.7698.0415,2.1976.083,4.3542.124,6.4692-8.2112,3.691-13.9337,11.9437-13.9337,21.5238,0,6.5107,2.6537,12.3998,6.9253,16.6709,2.2811,2.3221,5.0594,4.1471,8.1697,5.3084.3736,9.165.7467,14.8465,1.1198,16.7955v.0415c-.0415.2491-.0415.4566-.0415.7052,0,7.506,19.3672,13.6026,43.296,13.6026,23.8874,0,43.2546-6.0966,43.2546-13.6026v-.083c.3726-.7467.7047-6.8429,1.0783-17.3762,8.9573-3.3179,15.3441-11.9436,15.3441-22.0623,0-6.5113-2.6543-12.4004-6.9259-16.6715-2.1151-2.1151-4.6447-3.8155-7.423-5.0183.0415-1.9906.0831-4.0641.1241-6.1377,8.3772-3.6079,14.2248-11.9021,14.2248-21.6067,0-6.5108-2.6543-12.3998-6.9259-16.671-1.9075-1.908-4.1471-3.4834-6.6353-4.6447.4977-35.4995.9953-77.4266,1.4099-122.5472,7.2574-4.0225,12.1513-11.7361,12.1513-20.611,0-6.5112-2.6543-12.3998-6.9259-16.6714-1.4514-1.4514-3.0688-2.6952-4.8523-3.691.4981-53.4562.9538-109.7738,1.3689-164.1007,13.3535-3.8571,26.6656-8.0042,39.9366-12.2338,26.5416-8.7923,52.8756-18.3719,78.8775-28.7397,13.0225-5.1838,25.961-10.6163,38.7344-16.2568,12.8559-5.557,25.6703-11.197,38.4022-17.0445,25.4628-11.6531,50.719-24.3435,74.3158-39.9367,23.4728-15.7177,45.0795-33.9645,65.1924-53.7048,8.9999-8.9164,17.7082-18.1233,26.0024-27.7029-7.0083,20.9431-12.7314,42.3838-17.127,64.0731-7.0504,33.7985-10.6169,68.3442-11.5706,102.8894-.7047,34.5452,1.3688,69.2155,6.7598,103.3046,5.1839,34.1306,13.6021,67.722,24.9651,100.1937-8.2942-33.3839-14.5558-67.0999-18.5789-101.0645-1.0783-8.4602-1.7415-17.0035-2.6122-25.5053-.5812-8.5012-1.3274-17.0025-1.618-25.5458-.9122-17.0445-1.0777-34.1306-.6216-51.1756.7877-34.1306,3.9395-68.2197,9.6216-101.8942,4.0225-23.6798,9.1234-47.2356,15.3025-70.5418,8.5433-10.0367,16.63-20.4044,24.219-31.1448,16.3398-22.8091,31.4349-46.5724,44.4573-71.455,3.649-7.0914,7.1745-14.2658,10.5333-21.4823,6.7183-14.4318,12.8975-29.1122,18.2474-44.0417,4.4787-2.3226,8.5018-5.0593,12.0677-7.9626,7.299-5.8476,12.9395-12.3583,17.5012-18.579-.083,3.0273-.083,6.0962-.0415,9.1235.124,6.2206.4976,12.4413,1.1608,18.6619-3.815,1.1614-7.423,2.7373-10.7404,4.5202-7.5065,3.8571-13.3955,9.331-18.8695,14.681-5.1009,5.6815-9.6631,11.5705-13.188,17.7497-1.3684,2.3226-2.6957,4.6032-3.8155,6.9253-.3726.7882-.7462,1.5765-1.0783,2.3642-1.4924,3.1103-2.8613,6.1791-3.8566,9.331-2.3641,6.1376-3.8565,12.3167-5.1008,18.2058-.4976,2.9858-.9538,5.8891-1.4104,8.7088-.3726,2.8613-.4556,5.64-.6632,8.3357-.083,1.3689-.166,2.6958-.2905,4.0226.0415,1.3274.0415,2.6127.083,3.8986.0415,2.5296.083,5.0178.1245,7.4229.3736,4.7693.9538,9.1655,1.3689,13.2296l-.0415-.1246c.7877,10.2438,1.3268,18.3719,1.6169,23.8874.083,1.0783.1245,2.0736.166,2.9863.0416.8707.0831,1.6169.0831,2.2806-.6637-.207-1.3274-.4146-2.0736-.5807-8.7503-1.9905-15.6762,2.0736-17.1276,2.9858l.0416.0416c-5.0599,2.6127-9.8702,8.1696-10.8239,15.6761-.5807,4.0226.0415,8.4188,2.0735,12.3583,1.949,3.9811,5.3084,7.4235,9.4971,9.5386,4.2301,2.0735,8.9989,2.7782,13.3535,1.949,2.4467-.4146,4.7688-1.2443,6.8423-2.4472,1.0368,1.4519,2.2811,2.8203,3.733,3.9816,3.3589,2.8618,7.8376,4.6032,12.5239,4.8523,4.7277.207,9.331-1.0783,12.9804-3.6085,2.4472-1.6169,4.5207-3.732,6.0131-6.0961,1.2859,2.4887,3.0688,4.8108,5.3915,6.6773,3.3594,2.8197,7.8796,4.6027,12.5658,4.8518,4.6863.2075,9.331-1.1198,12.939-3.608,3.691-2.4466,6.4277-5.9721,7.9211-9.7041.1245-.3321.2901-.7052.3731-1.0367,1.2023,3.5249,3.4419,6.9253,6.5522,9.497,3.4009,2.8197,7.8796,4.6027,12.5659,4.8518,4.6862.2075,9.331-1.1198,12.9804-3.608,3.691-2.4466,6.4277-5.9721,7.9211-9.7041.2486-.6221.4562-1.2443.6632-1.866.2906.7877.6222,1.5755.9953,2.3222,1.908,3.857,5.1008,7.4229,9.2895,9.704,4.1056,2.3642,9.1654,3.4009,14.1832,2.7788,4.9769-.6637,9.6626-2.9448,13.022-6.3037,3.4424-3.2349,5.64-7.506,6.5113-11.7361,1.5339-7.0089-.5812-13.6442-3.9401-18.1649-.0825-.0825-.1655-.207-.207-.29-1.3274-2.1146-8.5848-12.8145-20.6526-12.8975v-.0415c.2071-2.2396.4972-5.0593.9123-8.4603.5801-4.4786,1.2853-9.9941,2.0735-16.3808.4147-3.1934.8293-6.6353,1.2439-10.3678.2075-1.8245.4146-3.732.6221-5.6815.0831-1.9905.1246-4.0226.2076-6.0961.0415-2.0736.083-4.1886.1245-6.3867-.1245-2.1976-.2906-4.3957-.4151-6.6768-.166-4.6032-1.0368-9.2895-1.783-14.2243-2.032-9.7046-4.8107-20.1554-10.0361-30.3156-5.1009-10.1602-11.9852-20.2794-21.3992-28.9882-4.6033-4.4377-10.1602-8.2527-16.1733-11.5706-.7467-.3731-1.4935-.7047-2.2812-1.0368.8293-7.0914,1.3274-14.2243,1.4514-21.2746.1656-10.7824-.4561-21.6478-1.908-32.3472,5.8896-2.3641,11.156-5.889,15.3446-10.0776,3.857-3.8986,7.0089-8.2527,9.538-12.7314,2.3642-4.6038,4.2717-9.248,5.4745-13.9763.9123-3.732,1.5344-7.3814,1.783-10.9894,1.4519.1661,2.9448.4561,4.5207.7877,9.0404,2.0736,19.7818,7.299,28.1175,17.5422,4.1056,5.1009,7.5475,11.3215,9.5385,18.4964,1.0368,3.525,1.6585,7.34,1.9075,11.197.0831.9953.0831,1.991.0831,2.9863-.0416,1.0368.083,1.6169-.1661,3.732-.2906,3.608-.7462,7.2159-1.2443,10.9069,14.8885-2.8202,19.1601-2.2391,26.9147-.4146,7.1744,1.866,14.0587,5.723,19.5742,11.28,5.5159,5.516,9.4555,12.8564,10.8244,20.9846.7462,4.0641.8292,8.3357.3731,12.6489-.1246,1.0778-.2486,2.156-.4562,3.2343-.2075,1.8665-.9537,4.2717-1.5759,6.4693-1.4929,4.5622-3.94,10.1192-5.9721,15.2615,1.2028-.3316,2.9858-1.1193,4.5622-1.7419l4.9349-1.9491c3.3594-1.4098,6.5112-2.3636,9.7871-3.5664l2.4466-.8707c.3736-.1246.9123-.3316,1.1613-.4147l.6222-.1245,2.6127-.5806c1.7414-.4562,3.5249-.7467,5.3084-.9953,7.1329-1.0783,14.5149-1.1613,21.8553-.1661,14.722,1.9496,29.3614,8.4188,40.8489,19.1181,11.4456,10.6584,19.6157,25.4223,22.3945,41.6787,1.3684,8.1281,1.4924,16.5469.207,24.8826-.3315,2.0735-.8292,4.1056-1.2023,6.1791l-1.7419,6.0962-2.2396,5.9721c-1.9075,4.064-3.8156,8.0866-5.7646,12.1512l7.548,2.8613c1.2444.4976,2.4882.9952,3.649,1.5344l2.1566.9537c2.2811,1.0783,4.5207,2.2391,6.7188,3.4834,4.3956,2.4472,8.7088,5.1424,12.8144,8.1282,8.2527,6.0136,15.8417,13.0225,22.2699,21.0261,8.7919,10.9484,15.2196,23.4728,18.7865,36.7018,3.5665,13.2295,4.5618,26.9977,2.7783,40.2272-1.5339,13.2706-5.8471,25.9194-11.8192,37.3655-3.1518,5.6395-6.5107,11.1139-10.4918,16.0488-1.908,2.5716-4.0646,4.8938-6.1381,7.2159l-.7882.9127-.4556.4561-.8298.8293-3.2758,3.1518-6.5113,6.3452,7.5896,5.4745c1.2438.9122,2.1975,1.7414,3.3173,2.6122l1.7835,1.5349c2.1151,1.949,4.0641,3.981,5.8471,6.0961,3.6084,4.2716,6.4697,8.9574,8.5017,13.8927,4.1056,9.9116,4.3132,20.8601,1.866,30.9377-2.5296,10.1602-7.7135,19.3667-14.1827,27.0803-3.3594,3.7325-6.8014,7.3819-10.6999,10.4092-1.866,1.6175-3.9395,2.9033-5.8886,4.3542l-.7467.5396-1.3268.7877-2.6957,1.6175c-1.742,1.0783-3.5665,2.115-5.2669,3.2343,1.0782,2.1981,2.1565,4.4377,3.0688,6.5943l.9952,2.6127.5807,1.742c.7462,2.2806,1.3689,4.6442,1.866,7.0083.9953,4.6863,1.4104,9.3725,1.2858,13.9342-.083,9.1655-2.9027,17.6252-7.1744,24.7586-4.3546,7.1329-10.3262,12.7314-16.796,16.7125-3.2348,1.991-6.5937,3.608-9.9941,4.8938l-2.5302.8707-1.2853.4146-.6222.1661-.9953.2485c-2.7367.7467-5.6815,1.1614-8.3357,1.659.5807,2.1151,1.1613,4.1886,1.7005,6.2622.207.9952.4976,1.991.6636,2.9863l.3316,1.866c.4146,2.4881.6637,4.9348.7052,7.3404.2071,4.7273-.2075,9.2065-1.0368,13.3121-1.6179,8.2111-4.7282,14.8054-7.797,19.7402-6.3447,9.9117-11.7362,13.8097-11.2385,14.3904.2075.2075,1.7004-.4977,4.2301-2.3642,2.5297-1.949,6.1376-5.0593,9.8701-10.0356,3.774-4.8933,7.6306-11.7367,9.9532-20.5695,1.1613-4.4377,1.9075-9.2895,1.949-14.5564.0415-2.6127-.083-5.3084-.4146-8.0867-.1245-1.0367-.2486-2.0735-.4146-3.1103-.1246-.6227-.2076-1.2443-.3321-1.908.8707-.083,1.742-.2486,2.6132-.4146.1655-.0415.0825,0,.3311-.083l.7057-.1661,1.4508-.3731c.9538-.2901,1.9081-.6221,2.8618-.9122,3.857-1.2854,7.7136-2.9033,11.4876-5.0599,7.506-4.2711,14.6804-10.4918,20.0303-18.7035,5.2669-8.1281,8.9164-18.2468,9.2895-28.9052.2906-5.3084-.083-10.7408-1.0783-16.1733-.5386-2.6957-1.1613-5.3914-1.9905-8.0871l-.6217-1.9906-.3736-1.1608-.2906-.8297c.2491-.2486.7882-.4561,1.1613-.6637l.5812-.3731.3311-.166.8712-.5807c2.1976-1.5339,4.5617-2.9858,6.6768-4.7687,4.4377-3.2764,8.4602-7.299,12.3583-11.5291,7.5065-8.6678,13.7271-19.1596,16.9205-31.1863,3.1103-11.9437,3.1518-25.5873-1.8665-38.0287-2.4467-6.1796-5.9306-11.9857-10.1602-17.128-2.1151-2.5707-4.4372-5.0179-6.8843-7.299l-2.2812-2.032.5812-.5387.2901-.249Zm-157.59-1274.1566c.2901.4146.5391.7877.7882,1.2028.5801.9122,1.1608,1.866,1.6999,2.8197,9.414,15.7177,16.6715,32.4307,22.477,49.2677,6.1382,17.9152,10.6999,35.9555,14.2248,53.8293,3.4419,17.8328,5.8891,35.458,7.7551,52.6685,1.9075,17.2516,3.1103,34.0061,3.5669,50.1799.8708,32.3887-1.2028,62.6212-5.3914,89.9095-4.1056,27.2873-9.9947,51.6313-16.3809,72.6153-3.1103,10.5339-6.6357,20.1134-9.7461,28.9888-2.4881,6.2206-4.7272,12.1092-6.9253,17.5006-.8712-8.1286-1.9905-16.3398-3.3179-24.551-.8292-5.5155-2.032-10.9899-3.0273-16.5469-.4981-2.7373-1.0368-5.5155-1.5759-8.3357-.6637-2.7373-1.3269-5.5155-1.9911-8.2527-1.3678-5.557-2.5706-11.156-4.1055-16.713-1.6585-5.557-3.3174-11.1145-4.9764-16.6714-1.4929-5.64-3.6079-11.1555-5.5985-16.671-2.0735-5.516-3.8985-11.156-6.1791-16.6714-2.3636-5.4745-4.7693-10.949-7.1749-16.4639-1.2023-2.7793-2.3221-5.5575-3.649-8.2942l-4.1886-8.0457c-2.8198-5.3914-5.599-10.8239-8.4188-16.2568-3.2348-5.2254-6.4282-10.4923-9.663-15.7592-6.1377-10.7819-13.9337-20.528-21.2742-30.7297-3.5254-5.2254-7.8796-9.7871-11.9852-14.5979-4.1471-4.8103-8.2942-9.58-12.4828-14.4318-8.8334-9.165-17.9983-18.2059-27.9515-26.5001-19.7817-16.754-41.5125-30.6887-63.907-41.9272-22.3525-11.363-45.1615-20.6525-67.6395-29.1542-44.9955-16.9201-88.8307-31.3109-130.3433-45.8258-83.1912-28.5316-158.1291-54.2024-221.0409-75.7677-16.2978-5.5149-31.808-10.7818-46.4059-15.7171-.1245-24.7581-.2905-48.77-.4146-71.9937,5.9721-4.2302,9.8702-11.2385,9.8702-19.1181,0-6.5108-2.6543-12.4003-6.9259-16.6715-.9537-.9537-2.032-1.8665-3.1928-2.6542-.0416-1.4099-.0416-2.8197-.0416-4.2301,3.2344,2.8202,6.9254,5.6815,11.0725,8.5433,13.0635,8.9574,31.1863,17.3346,53.5803,21.1086,5.5575.9537,11.363,1.6589,17.3766,2.0735,6.0551.4147,12.2343.4562,18.4134.6637,12.4828.2901,25.7119.9123,39.5636,1.5754,55.4878,2.9863,121.5924,7.8386,194.4158,16.796,36.4532,4.6453,74.5233,10.0777,113.2992,18.9526,38.8578,8.7503,78.878,19.1181,117.0312,36.1211,18.994,8.6263,36.9918,18.745,52.8341,31.0203,15.3025,11.9021,27.9099,26.6661,37.9461,42.7154Zm-180.7722-258.655c2.9443,1.0368,5.9301,2.0736,8.8744,3.1103.249.0826.4981.1656.7467.2486.6636.2906,1.3268.5807,1.9905.8707,2.4051,1.0368,4.7693,2.0736,7.1334,3.1104,3.0688,1.3273,6.0961,2.6547,9.0819,3.94,2.9443,1.4929,5.723,3.1934,8.5848,4.7693,2.8197,1.6169,5.6395,3.1933,8.4598,4.7688,2.7787,1.6179,5.2669,3.6499,7.8796,5.4329,2.6121,1.8245,5.2253,3.6495,7.796,5.4745,2.6547,1.6999,4.8113,4.0225,7.2165,5.9716,19.118,16.0492,34.5867,34.4626,46.945,53.1246,12.2337,18.745,21.8138,37.4485,29.6519,54.9492,13.8096,31.974,22.0623,59.8424,27.7029,80.2874-6.4283-7.2575-13.5612-14.0583-21.3992-20.1544-16.8785-13.105-35.7066-23.7213-55.4053-32.6382-39.5636-17.6252-80.3299-28.0345-119.6029-36.7013-39.356-8.8338-77.9238-14.1008-114.584-18.4134-73.3626-8.3772-139.6748-12.3173-195.4536-14.1418-13.9337-.4146-27.2048-.7047-39.8116-.7047-6.3452-.0415-12.3588.0831-18.1234-.166-5.764-.2076-11.363-.7052-16.7129-1.4519-21.4403-2.9443-38.9824-10.2432-51.9629-18.2468-5.3084-3.2764-9.8701-6.5943-13.8097-9.8287-.249-34.9603-.4981-67.8881-.8297-98.5352h.0415c4.7278,2.8202,10.1192,5.7645,16.4229,8.3767,6.3862,2.5717,13.6851,4.3962,21.4817,5.516,15.6762,2.3226,33.55,1.8245,52.8341,1.4514,9.6631-.0826,19.8233-.1241,30.3986-.2071,10.6163-.166,21.6478-.4981,33.0938-.9122,22.8091-.9128,47.1521-2.3642,72.6984-3.8156,25.5463-1.4929,52.378-2.7787,80.1219-3.6494,27.7444-.7467,56.401-.7467,85.5138,1.8245,29.0297,2.5716,57.1472,7.6725,83.0251,16.3398Zm-356.568-133.4126c11.6946,1.1198,23.4307,2.2812,35.1258,3.2764,11.6946,1.0783,23.3892,2.4052,35.0844,3.6905,23.3482,2.5302,46.6549,5.1014,69.7546,8.6263,23.0991,3.4424,46.0322,7.7136,68.1366,14.4319,11.0725,3.3178,21.9799,7.1744,32.5962,11.6951,10.6163,4.6442,21.0256,9.7041,31.1863,15.3025,28.8637,16.0078,55.2808,36.5778,77.8408,61.0453-23.8459-7.1329-49.1841-11.446-75.062-13.7681-29.8595-2.6127-59.0133-2.5297-87.0062-1.576-27.993,1.0368-54.8667,2.6127-80.496,4.3962-25.5458,1.783-49.8068,3.6075-72.4913,4.9763-11.363.6632-22.311,1.2444-32.8033,1.6585-10.5338.4566-20.6109.5396-30.4401.9957-19.4081.9953-36.7428,2.0736-51.6727.5392-7.465-.7467-14.2243-2.1151-20.1964-4.1471-6.0136-2.1151-11.4046-4.6038-16.1738-7.0499-.8708-.4151-1.7-.8712-2.4882-1.2858-.3731-43.6277-.8297-82.4445-1.2853-115.8289,40.1021,5.0183,80.2463,9.1654,120.3906,13.0219Zm-186.2057-248.909c-1.8245-2.7373-3.3589-6.0964-3.898-9.8702-.5392-3.774-.2906-8.0039,1.3273-11.9437.7047-1.9492,1.783-3.8567,3.1519-5.5987,1.3268-1.7832,2.9443-3.3592,4.8103-4.6863,3.6909-2.6954,8.3772-4.1883,13.1875-4.2713,4.8528.083,9.5385,1.5759,13.2295,4.2713,1.8665,1.3271,3.4834,2.9031,4.8108,4.6863,1.3688,1.742,2.4466,3.6495,3.1518,5.5987,1.6169,3.9398,1.866,8.1697,1.3274,11.9437-.5397,3.7738-2.0736,7.1329-3.8986,9.8702-2.3221,3.4004-5.1838,5.7642-7.8381,7.4232h-.0415c-3.5249-.5807-7.1329-.9125-10.7413-.9125-3.6075,0-7.1744.3318-10.6989.9125-2.6962-1.6175-5.516-4.0228-7.8801-7.4232Zm-29.1127,56.3175c1.6594-4.4375,4.1061-8.7089,7.1749-12.6487,2.9443-3.9813,6.5937-7.5477,10.8239-10.492,8.2942-6.0964,18.828-9.497,29.6929-9.6213,10.9074.1243,21.4412,3.5249,29.7354,9.6213,4.1886,2.9443,7.8791,6.5107,10.8234,10.492,3.0688,3.9398,5.5159,8.2112,7.1744,12.6487,3.6085,8.8748,4.1056,18.3304,2.9448,26.8319-.7467,5.3496-2.3637,10.2847-4.5202,14.7637-3.0688-1.4929-6.5113-2.3224-10.1192-2.3224h-72.0352c-3.608,0-7.0499.8295-10.1187,2.3224-2.1566-4.479-3.774-9.4141-4.5207-14.7637-1.1613-8.5015-.6632-17.9571,2.9443-26.8319Zm-3.566,62.8287c0-1.8247.3316-3.5664.9122-5.1839,1.1614-3.1933,3.3594-5.8888,6.2207-7.7135.6632-.4149,1.3684-.8295,2.1151-1.1198,1.8245-.788,3.8565-1.2441,6.0131-1.2441h72.0352c2.115,0,4.1471.4146,6.0136,1.2026,0,0,0,.0415.0415.0415.7047.2903,1.4099.6634,2.0735,1.1198,2.8613,1.7832,5.0594,4.5202,6.2207,7.7135.5802,1.6175.9122,3.3592.9122,5.1839,0,4.9766-2.4056,9.414-6.0961,12.1925-1.2858.9953-2.7372,1.7417-4.2716,2.2394-1.5349.5391-3.1934.8294-4.8938.8294h-72.0352c-1.7,0-3.3594-.2903-4.8518-.8294-1.5764-.4977-3.0273-1.2856-4.3132-2.2394-3.691-2.82-6.0961-7.2159-6.0961-12.1925Zm91.941,23.0579c-.3731,12.9805-.7047,28.6979-.9953,46.8622-1.1613-.2073-2.4051-.2903-3.6494-.2903h-72.0352c-1.2444,0-2.4467.083-3.608.2903-.3316-18.1643-.6637-33.8402-.9953-46.8207,1.4929.2903,3.0274.4561,4.6033.4561h72.0352c1.5759,0,3.1518-.1658,4.6447-.4976Zm-91.941,70.1274c0-4.2298,1.7415-8.0866,4.5617-10.8653,1.949-1.9491,4.4372-3.3592,7.2159-3.9811,1.1193-.2903,2.2806-.4149,3.4835-.4149h72.0352c1.2028,0,2.3636.1246,3.4834.4149,2.7372.6219,5.2254,2.032,7.1744,3.9811,2.8618,2.7372,4.6037,6.594,4.6037,10.8653,0,4.1059-1.6174,7.8381-4.2716,10.5754-2.1151,2.1978-4.8518,3.7737-7.9621,4.3959-.9953.166-1.9911.2901-3.0278.2901h-72.0352c-1.0368,0-2.0321-.0826-2.9858-.2901-3.1519-.6222-5.9301-2.1981-8.0452-4.4374-2.6132-2.7373-4.2301-6.4695-4.2301-10.5339Zm90.1995,23.3485c-.4566,31.891-.8707,68.8419-1.2858,110.1469,0,1.4514,0,2.9863-.0415,4.4787-.2491,29.2788-.5392,60.7142-.7877,94.1396v4.1886c-.0415,4.2296-.083,8.5012-.1245,12.8144-.2076-.0415-.4562-.0415-.6637-.0415h-72.0352c-.2076,0-.4561,0-.6632.0415-.6642-89.9505-1.4104-166.4649-2.2396-225.7682.9538.1661,1.9075.2071,2.9028.2071h72.0352c.9957,0,1.9495-.041,2.9032-.2071Zm-90.1995,249.2825c0-2.5297.6217-4.9353,1.7415-7.0504,2.4471-4.7273,7.2989-7.9621,12.8979-8.1697.2071-.0415.4141-.0415.6217-.0415h72.0352c.2075,0,.4146,0,.6221.0415,5.5575.2076,10.3678,3.4009,12.856,8.0867,1.1613,2.1565,1.7834,4.5622,1.7834,7.1334,0,2.4881-.6221,4.8523-1.6589,6.9258-2.4882,4.8518-7.4645,8.1697-13.188,8.2942-.1246.0415-.2901.0415-.4146.0415h-72.0352c-.1246,0-.2906,0-.4146-.0415-5.7646-.1245-10.7824-3.4839-13.2296-8.3772-1.0367-2.0736-1.6169-4.3962-1.6169-6.8428Zm14.9295,23.5558h72.7399c-.1246,20.3619-.2486,41.305-.3731,62.7867,0,2.7372-.041,5.4744-.041,8.2527-.1661,32.14-.3321,65.5244-.4567,100.0287v.207c-.2075,47.028-.3731,96.0886-.4976,146.8491h-70.0032c-.3315-98.3692-.7046-190.2697-1.1613-273.4188v-6.0136c-.083-13.1045-.166-26.0435-.207-38.6918Zm-14.9295,341.721c0-.6216.0415-1.2443.1245-1.8245.9123-7.5895,7.34-13.478,15.1366-13.478h72.0352c7.8381,0,14.2663,5.93,15.137,13.5611.083.5386.1245,1.1608.1245,1.7414,0,.5392-.0415,1.0368-.083,1.5344v.1661c-.8707,7.589-7.3404,13.5606-15.1785,13.5606h-72.0352c-7.7966,0-14.2658-5.9301-15.1366-13.4781-.083-.5801-.1245-1.1608-.1245-1.783Zm86.177,23.5553c-.1246,54.5766-.2491,110.9766-.2906,168.7875,0,4.1056,0,8.2527-.0415,12.3998,0,39.9782-.0415,80.62-.0415,121.8005h-69.0489c0-105.2536-.1246-206.8987-.3736-302.9878h69.7961Zm-70.9159,311.282h72.0352c8.4187,0,15.2615,6.8428,15.2615,15.2616,0,8.4182-6.8428,15.2615-15.2615,15.2615h-72.0352c-8.4188,0-15.2611-6.8433-15.2611-15.2615,0-8.4188,6.8423-15.2616,15.2611-15.2616Zm155.7655,468.0427c-6.0546.2071-12.0267-.166-17.9988-1.2443-6.0131-.9537-12.2753-2.0735-18.6205-2.1151-6.3452,0-12.6073.7047-18.7865,2.3637-3.1103.8297-5.9716,1.9495-8.8328,2.7787-1.5349.4561-3.1104.8292-4.6868,1.2028.0415-11.4045.083-22.9336.1246-34.5872,1.6179-.1245,3.1933-.3731,4.7282-.7877,6.0961-1.7835,10.7404-4.2301,15.8002-3.774,5.1009.3316,10.4503,2.6127,15.3031,5.9721,4.8518,3.3174,9.4135,7.8376,14.6389,12.3583,5.1424,4.4787,11.6531,8.9989,19.1181,11.4045,6.9258,2.3221,14.1418,3.3589,21.8553,2.7368-7.4235,2.0735-15.0125,3.4424-22.643,3.6914Zm23.5138-2.4056c-11.4046,8.4187-22.8091,16.5054-33.4254,25.0487-2.9033,2.3221-5.7231,4.6442-8.4603,7.0499-2.6542,2.3226-5.2254,4.4376-8.0041,6.3867-5.5155,3.898-11.3216,7.1744-17.3347,9.7871-8.2942,3.6494-16.962,6.0131-25.4217,7.3814.0415-15.3856.1245-30.9787.207-46.8204,1.908-.2901,3.7745-.6222,5.6405-1.1198,3.1104-.8298,6.0131-1.825,8.8744-2.5297,5.7235-1.4104,11.8196-2.0736,17.7497-1.9905,5.9721-.0416,11.9027.9952,18.0818,1.8659,6.1377.8293,12.5659,1.2444,18.7866.5392,6.2616-.5807,12.3998-1.9075,18.3298-3.7325,1.6585-.5802,3.3179-1.2028,4.9764-1.866Zm-92.3562-116.1605c-1.5339,6.8013-7.6305,11.9022-14.8879,11.9022h-72.0352c-8.0867,0-14.7225-6.3037-15.2196-14.2663-.0415-.3316-.0415-.6632-.0415-.9953,0-.3315,0-.6216.0415-.9122.4556-8.0036,7.1329-14.3488,15.2196-14.3488h72.0352c7.8796,0,14.3908,6.0131,15.1785,13.7271v3.0689c-.0415.6216-.166,1.2438-.2906,1.8244Zm-14.8879,277.524h-71.8692c.3731-81.2411.6632-167.7502.8707-257.3276h70.0032c.1245,55.3223.3316,108.6545.5392,159.5395.166,33.7155.2905,66.3537.4561,97.7881Zm-70.8739-304.4386c.2075-92.5637.2906-187.9056.3321-283.7447h69.0489c.0415,98.3693.1245,193.5451.3736,283.7447h-69.7546Zm-113.0502-225.3951c0-.0415-.0415-.0415-.0415-.083,2.6127-9.2895,5.6816-18.4134,9.0404-27.4123,6.0136-16.7545,14.4324-32.5137,20.9016-49.1021,6.5528-16.5885,12.0267-33.591,16.3399-50.8851,4.3126-17.2516,7.589-34.8353,9.5795-52.5435,2.1151-17.7082,2.9028-35.665.9953-53.4563-1.8245-17.7907-6.4692-35.2088-12.5659-51.9628-6.1791-16.796-14.0997-32.9283-23.7213-47.9823-9.5795-15.054-20.5695-29.3618-33.7985-41.5541-13.14653-12.1092-28.94672-22.0213-46.61342-26.251-17.6252-4.2716-35.9141-3.8985-53.6223-1.4929-17.7907,2.4052-35.1264,6.7593-52.4195,10.7824-17.3346,3.9811-34.6697,8.1697-52.0464,11.7361-17.3346,3.6495-34.9183,6.4283-52.46038,8.7509-4.39622.5386-8.75092.9537-13.105,1.0368-2.19812.0825-4.39572,0-6.59382-.0831-2.1566-.0415-4.3546-.1245-6.5527-.3321-8.7504-.6216-17.4592-1.9905-26.00248-4.064-10.61632-2.5297-20.98412-6.1377-30.93722-10.6169,26.0024,5.1839,53.2907,4.0641,78.795-3.4004.2075-.0415.3736-.1245.5806-.1655l18.2889-5.433-19.0771.8292h-.5386c-19.9478.7878-39.9787-1.1198-59.2623-6.0131-19.4912-4.9763-38.2362-12.8149-55.6128-22.9336-8.7088-5.0593-17.0861-10.6998-25.1312-16.7544-7.9626-6.0131-15.5102-12.9385-23.59728-19.2422-8.70881-7.0088-17.74921-13.4365-26.87321-19.7402.9953.4556,1.9906.9537,2.9448,1.4514,9.2895,4.6447,18.0808,9.9531,26.8732,15.6341,8.8328,5.682,18.2468,10.8659,28.0344,14.93,9.5796,4.0641,19.53282,7.299,29.6099,9.7041.2076.083.4151.1245.6222.166l25.2142,6.0131-23.2232-11.487c-.2075-.083-.3736-.2076-.5811-.2906-21.5648-10.6999-42.0927-23.3482-61.3769-37.7391-9.7456-7.2574-18.9935-14.9704-28.2005-23.0161-9.2065-8.0456-18.3304-15.8832-25.2142-25.5463-7.1329-9.5796-12.8149-20.1134-17.1691-31.3103-4.3957-11.1975-7.8381-22.9337-12.3173-34.5037-4.72719-12.6904-10.9894-24.8417-18.4959-36.1632,4.0226,4.4372,7.6725,9.207,10.9074,14.2663,4.6442,7.0914,7.8791,14.888,10.8649,23.0992,3.0273,8.2112,6.2622,16.6714,10.4508,24.634,4.10561,8.0037,8.9164,15.5517,13.8932,22.8921,5.0593,7.34,10.7819,14.4734,17.4591,20.6526,12.8975,12.1922,28.6977,21.1911,45.5352,26.5825.37311.1246.7047.2076,1.0783.3321l21.1501,6.5938-18.0398-12.8975c-.2906-.2075-.5807-.4151-.8707-.6636-16.7545-11.9852-31.726-26.4586-43.6692-43.2131-12.1097-17.003-21.3577-36.2041-27.9099-56.1104-3.1934-9.9527-5.682-20.1544-7.2159-30.4806-.7467-5.1839-1.2444-10.3678-1.5765-15.5932-.2485-5.2254-.4556-10.6998-.9122-16.0913-.7462-9.2479-2.2396-18.4544-4.4372-27.4948,3.0688,8.3357,4.8108,17.1686,6.9259,26.2925,2.4876,10.7824,6.55221,21.8548,13.0629,31.2688,6.2207,9.248,14.30731,17.0036,23.1412,23.5143.2486.166.49711.3731.7462.5391l23.92891,17.3347-18.86951-22.8091c-.2071-.2486-.3731-.4556-.5802-.7047-8.8754-10.8239-16.5469-22.7261-21.2752-35.7065-5.0178-13.2295-6.26209-27.3708-4.2296-41.4711,1.2853-10.2437,3.73251-20.7355,4.8108-31.5594.207,2.7367.4556,5.5155.7462,8.2527.6637,6.8013,1.866,13.4781,2.9028,20.1964.1245.7467.2075,1.4929.332,2.2391l1.9076,12.8564,5.4329-11.9437c8.9159-19.4917,12.7314-41.4295,10.2017-62.8287-1.3273-11.8607-4.6032-23.4723-9.53849-34.3382,7.05039,8.5848,12.56579,18.3304,16.33979,28.7812.1241.2901.2486.5807.3316.8707l11.4461,32.5132-3.732-34.2966c-.04149-.2901-.083-.6217-.1246-.9123-3.2763-29.8589-11.4875-59.1377-24.0534-86.4255,7.8381,8.8333,14.5149,18.7035,19.8233,29.2783l6.26221,12.3583,1.45139-13.7682c.0825-.7467.1655-1.4929.207-2.2391,1.4934-17.045-.4141-34.3796-5.8055-50.6365-2.5717-7.506-5.8061-14.8464-9.7461-21.7308,7.9626,7.6721,14.8885,16.4229,20.5285,25.961.207.3315.4146.7051.6221,1.0367l14.3488,24.8411-6.7598-27.8684c-.083-.3731-.207-.7882-.29-1.1613-5.30839-21.7723-10.90739-43.3786-17.1281-64.9023-6.2207-21.9793-14.14129-43.5446-22.7676-64.6117-14.8464-36.0801-32.6372-70.9154-52.9586-104.2168l107.3276,75.4356c20.611,14.4734,41.056,29.1128,62.0821,43.006l61.999,41.8441.62222.4146,4.89378-5.93c-10.1602-10.1607-17.6252-22.8921-21.6063-36.6608,21.6893,26.9977,47.5257,50.6775,76.3479,69.8376.249.2071.5391.3731.7877.5386l23.5557,15.6347-18.6619-21.2331c-.2071-.2486-.4146-.4977-.6222-.7467-5.5155-6.3862-9.9526-13.6852-12.9384-21.5233-1.6595-4.3131-2.90328-8.7503-3.65-13.312,17.7912,21.7723,40.6003,39.356,66.1051,51.1336.3731.2076.7467.3731,1.1193.5391l18.7035,8.4603-14.5979-14.4318c-.2896-.2906-.5802-.6222-.8707-.9123-3.9811-4.1886-7.0499-9.331-8.5843-14.7639-.5807-2.0321-.9128-4.1471-1.0368-6.2622,4.6863,8.8749,10.6163,17.1276,17.6252,24.3435,9.538,9.9532,20.9011,18.0398,33.3009,23.9704.4151.2486.8712.4561,1.3273.6637l15.42712,7.2574-11.15542-12.8979c-5.2254-5.9716-8.9579-13.2291-10.8239-20.9426-.82968-3.3589-1.2443-6.8013-1.3269-10.2438,4.8518,10.5339,10.7819,20.5285,17.5837,29.8595,9.28952,12.6899,20.2789,24.0944,32.4717,34.0481.4146.3311.8707.7047,1.2853,1.0368l11.5291,9.2064-6.0961-13.4366c-4.3962-9.6215-6.2622-20.3214-5.516-30.8547,2.6132,9.7871,6.5112,19.2426,11.4876,28.076,7.548,13.5606,17.6667,25.6293,29.5278,35.5405.33112.3321.7047.6636,1.0783.9537l11.9432,9.8291-6.6768-13.8932c-3.2343-6.7183-5.2254-13.9757-5.93058-21.3572,6.42818,17.4177,15.013,33.9646,25.58787,49.2257.166.2905.3315.5396.53913.8297l11.7781,16.8785-6.0136-19.6573c-.083-.3315-.207-.6216-.29-.9537-2.9033-9.8701-4.3962-20.1549-4.3547-30.4396l9.7456,25.4218c2.5712,6.4282,5.557,12.6903,8.3357,19.035l7.9211,17.8738.4977,1.1198,5.5985,12.5243.166-13.8927.2076-12.4413c.0825-4.1471,0-8.2942.2485-12.4413.0825-1.3269.1656-2.6957.3316-4.0226.6222,2.5297,1.2859,5.0594,2.032,7.589,2.6958,9.2895,6.5943,18.3719,11.3631,26.7072,2.3641,4.1886,4.6452,8.1701,6.4282,12.3588,1.783,4.1886,3.1518,8.5842,4.1886,13.0634,1.9905,8.9159,2.4467,18.2054,1.5344,27.3708l-1.1613,11.7362,6.2622-9.9527c.207-.3321.4561-.7052.6637-1.0783,3.5249-5.765,6.0546-12.2758,7.1744-19.0356,1.3273-7.1744.3321-14.7639-.9538-21.3987-1.1198-6.0136-1.783-11.8611-1.8245-17.8327,1.2023,7.589,2.7783,15.1365,4.8518,22.6015,2.1151,7.4235,4.8518,14.3903,6.5113,21.5238,1.6584,7.1744,2.7367,14.5148,3.1103,21.8963.7877,14.7639-1.0783,29.6109-4.7283,44.0012-3.4829,14.2243-8.8328,27.8684-16.0488,40.6003-.083.2071-.2075.4141-.332.6217l-7.3405,12.8564,10.9899-9.8706c.1661-.166.3731-.3316.5392-.4971,13.146-11.9442,23.2242-27.2883,28.9882-44.0843,3.691-10.6163,5.6815-21.7723,6.1376-32.9693,1.9906,10.9484,2.3642,22.1454.6637,33.1354-1.2438,8.7918-3.8985,17.2105-7.8796,25.1317-3.9395,7.9621-8.8743,15.5101-13.6856,23.1821-19.1591,30.6057-37.9872,61.792-52.1289,95.2589-7.0089,16.5885-15.0125,33.1354-18.0398,51.4242-1.4514,9.0404-1.659,18.4129.0415,27.4954,1.6174,9.0824,4.9763,17.7907,9.2894,25.8364,4.3132,8.1286,9.7872,15.4271,14.7225,22.9336,5.0178,7.506,9.9526,15.054,14.7634,22.6845,9.5796,15.2616,18.5795,30.9378,26.251,47.2356,15.5101,32.5132,25.0902,67.7636,29.3203,103.5531,4.1056,35.748,2.1566,72.4913-7.755,107.1616-9.9117,34.7522-27.0808,67.0168-37.2,101.8111-5.2254,17.3351-7.9206,35.3749-8.1281,53.4563-.0831,6.6767.166,13.395,1.3273,19.9893-3.4839-2.6132-7.0914-5.2254-10.9069-7.8801-3.94-2.7783-8.0871-5.557-12.3588-8.3357-2.1976-1.3684-4.3956-2.7783-6.5932-4.1887-2.1151-1.2438-4.2717-2.5706-6.4282-3.8565,1.6169-2.3226,2.9442-4.8933,3.9395-7.589,1.4519-4.0646,2.0736-8.4188,1.9905-12.8559-.0415-4.3962-1.0783-8.8754-2.9443-13.0635Zm-230.62042-97.6645l-5.2669-5.8061c-1.908-2.0736-3.1519-3.4419-3.7325-5.3499-1.3269-3.6905-.1246-7.9206,2.6127-10.2017,15.51062-13.8927,30.9792-27.7854,46.1988-41.9682l22.643-21.3997,5.599-5.4325,1.4099-1.3268.6637-.6637.29-.2071c.3731-.2905.7883-.5811,1.2024-.7467,1.825-.7467,4.0646-.29,5.3499,1.0778,14.6394,14.7224,29.6934,29.0713,44.872,43.2546,7.548,7.1334,15.3025,14.0587,22.9751,21.1086l5.764,5.2254,2.6132,2.3226c.5387.5806,1.0368,1.1613,1.4094,1.9075,1.5764,2.8203,1.2443,6.8013-1.1193,9.497-9.207,10.2848-18.4134,20.528-27.7444,30.7297-1.9905-.207-3.98108-.3726-6.01308-.5801-15.21962-1.2029-30.56422-1.9491-45.95032-2.1981-17.95668,0-35.789.9952-53.53868,2.8197-6.80132-7.2989-13.51962-14.7219-20.23792-22.0623Zm-70.5008,63.1193c.87072-3.3594,2.1976-6.5943,4.2296-9.2895,1.9495-2.6962,4.4792-4.6452,7.465-6.2207,5.88912-3.1933,12.981-4.7697,20.0308-5.4744l22.5185-2.1151c15.013-1.1198,30.025-2.4471,45.0381-3.0688,1.2023-.083,2.4046-.1245,3.6074-.166.5812-.0416,1.1198-.0831,1.659-.0831,13.271-.6631,26.417-1.1198,39.646-.8707,12.7734-.0415,25.6299.4146,38.48532.9953,1.11978.0415,2.23958.083,3.35938.1245,1.0783.083,2.115.1245,3.1933.166,15.095.5387,30.2741,1.3684,45.1616,2.2391,7.465.4562,14.9299,1.2444,22.2289,2.1566,7.2574.9128,14.18282,2.4052,19.9063,5.8061,5.76403,3.2348,9.99423,8.9158,11.65313,15.8007,1.4514,6.1791.9122,13.063-1.9905,19.2421-5.76463-3.1103-11.94373-4.9348-17.79132-6.5522-8.0871-2.1981-16.1323-4.0231-24.3435-5.8891-8.1696-1.783-16.4638-3.4004-24.9241-4.4372s-16.5884-1.825-24.9657-2.5712c-11.1554-.9537-22.2284-1.5759-33.4669-1.9905-.2485-.0415-.49758-.0415-.7882-.0415-5.22538-.2076-10.5338-.3321-15.8417-.4566-5.3909.1245-10.7824.249-16.1323.4566h-.1245c-11.3216.4146-22.5601,1.0783-33.8401,1.9905-8.3357.7877-16.5054,1.5759-24.9656,2.6127-8.4188,1.0368-16.713,2.6127-24.92418,4.4372-8.16962,1.825-16.21532,3.691-24.34352,5.8475-5.84748,1.659-11.9851,3.442-17.7912,6.5523-2.8618-6.1792-3.4419-13.0215-1.949-19.2006Zm-11.363,48.1058c1.4929-7.589,5.5154-14.5564,11.6531-18.0808,6.0961-3.857,13.8101-5.4745,21.7723-6.7603,8.0866-1.2023,16.2568-2.6537,24.3024-3.732,8.1282-1.0783,16.1734-2.0321,24.1775-2.7372,8.0041-.5807,16.3398-.9953,24.5095-1.3684,16.3394-.8707,32.8448-1.4934,49.0186-1.5764h.083c16.13232.0415,32.6792.7057,48.9771,1.5349,8.1696.3731,16.5054.8292,24.5095,1.4099,8.0041.7051,16.0493,1.6174,24.1359,2.6957,8.0872,1.1198,16.2569,2.5296,24.344,3.7735,7.9206,1.2443,15.63472,2.9033,21.77232,6.7188,4.8933,2.8197,8.4188,7.796,10.4093,13.5611.083.207.1655.4141.2071.6632.4561,1.2443.7882,2.5711,1.0367,3.898,1.1613,6.3452.5807,13.271-2.0735,19.5747-.2071-.1245-.4146-.2485-.6222-.3731-.9953-.083-2.032-.166-3.0273-.2491h-.2491c-5.0593-.373-10.2847-.7461-15.59313-1.1613-6.1377-.3731-12.4413-.7877-18.9106-1.2443-12.9389-.7877-26.5415-1.4924-40.76578-2.0735-28.49112-1.1609-59.46992-1.9491-92.72972-1.9491s-68.7584.7052-106.2484,2.4472c-4.6867.2486-9.414.4561-14.1832.7047-2.36368.1245-4.7278.249-7.1335.3736l-3.5659.207-2.90328.1661c-.66362-.083-1.20232.207-1.78342.5391-1.8245-5.599-2.1561-11.4875-1.1193-16.962Zm384.72652,691.3643c-17.2516,21.6893-38.1947,48.3139-62.0405,79.6247-23.8459,31.3104-50.88512,67.0584-79.12662,107.9488-7.0919,10.2022-14.1418,20.8185-21.1502,31.85-6.9258,11.1554-13.9762,22.3939-19.8232,35.582-4.9349,12.3582-11.28,23.9703-17.87428,36.6187-3.27592,6.3037-6.51072,12.8149-9.414,19.6572-1.45092,3.4425-2.77832,6.9674-4.02262,10.6169-1.2438,3.9395-2.032,7.3404-3.0273,10.7824-1.866,6.6767-4.0226,13.5196-7.2159,18.2058-1.5344,2.3641-3.2764,3.6495-4.2717,3.8565-.7462.0831-.6631.1661-1.0367,0-.1246-.0415-.2486-.124-.3316-.207-.2486-.1656-.5807-.5807-.9123-1.0368-1.4514-1.7835-2.8617-4.8523-3.9815-8.0041-1.1613-3.1519-2.1151-6.6353-2.9443-10.1602-1.7-7.0914-2.9443-14.4734-4.14708-22.1044-.66322-3.8566-1.16132-7.5475-2.07362-11.9432l-.4561-1.7835-.3731-1.4514-.7877-2.8197-1.6179-5.682c-2.15658-7.6306-4.3957-15.3026-6.8008-22.9752-4.81078-15.3856-10.28478-30.9372-17.0866-46.2813-13.6851-30.5226-31.4349-59.8009-51.9634-87.7939-20.5694-27.993-43.5446-54.7836-68.1781-80.9516-24.7581-26.0854-51.4652-50.719-77.0946-76.7214-12.7729-13.0225-25.4633-26.293-37.1169-40.3928-5.5564-7.1334-11.4875-14.0592-16.4639-21.7723-2.5706-3.7745-5.3084-7.465-7.7545-11.322l-7.1334-11.8607c-12.6899-21.8138-23.1822-44.7059-31.6009-68.1366-8.0867-23.5558-14.1413-47.5262-18.3714-71.5376-3.6085-24.1364-5.68209-48.2314-5.35-72.0772.7462-23.7629,2.4882-47.3596,7.4235-70.0442,1.8245-11.446,5.34941-22.4775,8.1697-33.5504,1.4099-5.5155,3.649-10.7824,5.3914-16.1733,1.9906-5.3085,3.5245-10.7829,5.8056-15.9253,2.2396-5.1839,4.4792-10.3262,6.7183-15.4271,1.1613-2.5297,2.1565-5.1424,3.40041-7.6305l3.89849-7.382c2.5712-4.8938,5.1424-9.7871,7.7136-14.6389,2.8612-4.6868,5.7645-9.3725,8.6263-13.9762l4.27161-6.9669,4.68569-6.6358c3.1519-4.4371,6.2622-8.8328,9.3725-13.1875,3.3594-4.1886,6.6773-8.3772,10.0362-12.4828l4.9763-6.2207,5.3085-5.8885c13.8512-15.9253,29.0297-30.0665,44.45682-43.213,15.46908-13.105,31.51788-24.8827,47.85778-35.292,4.1471-2.5296,8.21122-5.1423,12.3168-7.5475l6.1791-3.6084,5.806-3.2349c.0416,0,.1246-.0415.1661-.0825.0415,0,.1245-.0415.166-.0415l.7047-.0415,3.56652-.2486c2.40508-.166,4.76918-.3321,7.13338-.4981,4.6857-.2901,9.3725-.5802,14.0582-.8708,37.2409-2.1565,72.57442-3.4009,105.6267-3.9395,33.0938-.5397,63.9485-.3321,92.3146.2486,14.1833.29,27.7444.6636,40.6418,1.1613,11.9022.4561,23.14122.9952,33.84002,1.4098h.2076c.5806.0415,1.1613.0415,1.742.0831,2.0735,1.1613,4.064,2.2811,6.0551,3.4009,2.1976,1.3268,4.3956,2.6537,6.5932,3.898,4.3132,2.6127,8.4188,5.2254,12.3998,7.7966,6.1382,4.0226,11.8612,7.9626,17.2526,11.8191.0826.0415.1241.0831.2071.1246v.0415c1.4929,1.0368,2.9858,2.115,4.4372,3.1933,13.271,9.8697,24.0534,18.9521,32.5967,26.4996,12.2337,10.9074,19.9473,18.5789,23.5967,21.8138.0416,37.573.1246,74.8139.2076,111.5988-5.0593,4.3546-8.2942,10.7823-8.2942,17.9567,0,6.5113,2.6537,12.3998,6.9253,16.6715.4567.4981.9538.9537,1.4934,1.3689.2071,93.3098.5387,183.3848.9123,267.6543-5.682,4.2711-9.331,11.0724-9.331,18.7445,0,6.5107,2.6537,12.4003,6.9253,16.6714.7877.7882,1.659,1.5344,2.5717,2.1981.1656,34.5452.3311,68.0126.5387,100.2357-7.4235,9.082-16.1733,19.9058-26.127,32.4302Zm75.5606,392.6897c-20.9425,0-38.4022,4.6857-42.4253,10.9064.2906-2.6953.5397-7.382.8298-13.9343,1.8249.4562,3.7325.7052,5.6815.7052h72.0352c2.0735,0,4.0646-.249,5.9306-.7462.249,7.0914.4976,12.1093.7462,14.6804-3.1519-6.5937-21.1087-11.6115-42.798-11.6115Zm51.3827-25.8779c0,5.3079-2.6957,9.9526-6.8013,12.6898-.8712.6222-1.825,1.0783-2.7787,1.4929-1.783.7047-3.6905,1.0783-5.6815,1.0783h-72.0352c-1.866,0-3.6905-.3321-5.35-.9952-1.2023-.4152-2.3636-1.0368-3.4004-1.8245-3.94-2.7378-6.5107-7.299-6.5107-12.4413,0-4.8528,2.2806-9.207,5.8471-11.9857,1.4103-1.1198,3.0688-1.9906,4.8107-2.5292,1.4514-.4981,2.9863-.7467,4.6033-.7467h72.0352c1.7419,0,3.4004.2901,4.9768.8707,1.4514.4561,2.8198,1.2028,4.0641,2.1151,3.7735,2.7787,6.2206,7.2574,6.2206,12.2758Zm-91.7344-23.1412c.0415-1.0368.0415-2.0736.083-3.1519,1.4104.2906,2.8618.4147,4.3547.4147h72.0352c1.6174,0,3.2348-.1656,4.7692-.4562.0416,1.1198.0416,2.1981.0416,3.2764-1.5345-.3321-3.1519-.4976-4.8108-.4976h-72.0352c-1.4929,0-2.9858.124-4.4377.4146Zm91.7344-26.293c0,4.8113-2.2396,9.1239-5.7645,11.9442-1.4514,1.1613-3.1103,2.032-4.8938,2.6122-1.4514.4566-3.0273.7051-4.6032.7051h-72.0352c-1.4514,0-2.8613-.207-4.1886-.6221-2.1566-.5802-4.1056-1.6585-5.7641-3.0688-3.2348-2.8198-5.3084-6.9669-5.3084-11.5706,0-4.4372,1.9075-8.4183,4.9348-11.197,1.866-1.7415,4.1056-2.9858,6.6358-3.608,1.1608-.29,2.4046-.4561,3.6905-.4561h72.0352c1.4514,0,2.8202.2076,4.1471.5807,2.115.5806,4.0646,1.6589,5.723,3.0273,3.3179,2.8202,5.3914,7.0088,5.3914,11.6531Zm-90.8632-23.2647c.4977-33.0523.9538-72.6989,1.4099-117.7779.7052.0825,1.4104.124,2.1566.124h72.0352c.9127,0,1.825-.0415,2.6957-.1655.4146,43.213.8707,83.5227,1.3689,117.9024-1.3274-.2491-2.6548-.3736-4.0646-.3736h-72.0352c-1.2029,0-2.4052.083-3.5665.2906Zm90.8632-141.2092c0,3.8151-1.4103,7.3405-3.7325,9.9942-2.2806,2.6132-5.3909,4.4377-8.9163,5.0598-.8292.1241-1.7.2071-2.6127.2071h-72.0352c-.7047,0-1.4099-.0415-2.0736-.1655-4.0641-.5392-7.589-2.6542-9.9526-5.7646-2.0321-2.5712-3.2349-5.8475-3.2349-9.331,0-3.4424,1.1198-6.5942,3.0688-9.1234,2.4052-3.2764,6.1377-5.516,10.4093-6.0136.5801-.0825,1.1613-.124,1.783-.124h72.0352c.7882,0,1.5759.0415,2.3221.1655,3.733.5807,7.0504,2.5297,9.3725,5.3084,2.2396,2.6542,3.5669,6.0962,3.5669,9.7871Zm-13.0219-23.4312c-.7467-.0825-1.4929-.124-2.2396-.124h-72.0352c-.5802,0-1.1613,0-1.7.0825.4141-51.7973.7877-109.4007,1.2023-171.5658,0-2.032,0-4.064.0416-6.1376.1245-25.7949.29-52.4195.4146-79.7072h72.3252c.2491,34.4627.4567,67.2659.6642,98.2447v1.7004c.4141,52.0459.8292,106.0413,1.3269,157.507Zm-2.0321-265.7463h-72.2427c-6.3867,0-11.8607-3.9396-14.0998-9.4556-.7467-1.7829-1.1613-3.7325-1.1613-5.806,0-1.9905.3731-3.857,1.0783-5.64,2.2391-5.64,7.7546-9.6216,14.1828-9.6216h72.0767c6.2206,0,11.6116,3.7745,13.9342,9.124.8292,1.8665,1.2858,3.94,1.2858,6.1376,0,2.2396-.4566,4.3131-1.3273,6.2622-2.3636,5.2254-7.6305,8.9163-13.7267,8.9994Zm444.0304-200.6785c-13.6442,24.2604-29.1958,47.4016-46.0328,69.547-4.7277,6.2617-9.538,12.4413-14.5149,18.4959-.7882.9538-1.5344,1.8665-2.3636,2.8203-29.6519,35.789-63.8655,67.8051-102.5163,93.4344-22.9336,15.4686-47.6502,28.2-72.9064,39.9776-25.2148,11.7782-50.8436,23.0582-76.3479,34.2552-25.6298,11.0314-51.5902,21.2746-77.7997,30.8132-12.7734,4.7693-25.6294,9.331-38.5683,13.6851.2075-31.1448.4146-64.0725.6632-98.6183,5.889-4.2296,9.7046-11.1554,9.7046-18.9935,0-6.5107-2.6543-12.3998-6.9259-16.671-.7882-.7882-1.6589-1.5349-2.5712-2.1565.1661-33.0523.3321-67.432.4977-102.973,9.497-1.2858,19.2426-3.6495,28.8642-7.672,6.5522-2.7373,12.9384-6.2207,19.0345-10.4093,3.0278-2.0735,5.9721-4.4372,8.7509-6.8013,2.6537-2.2811,5.4329-4.5617,8.2527-6.8008,11.3215-8.9584,23.8043-17.5842,36.3701-26.9152,3.1104-2.3636,6.1792-4.6447,9.248-6.9674l4.6448-3.4829c.7882-.6227,1.5759-1.2443,2.5296-2.115.2491-.2491.4561-.4152.7462-.7883.2906-.29.6227-.6636,1.1198-1.6174.1661-.3731.2906-.7462.3321-1.1613.083-.1245.1661-1.4929-.2491-2.4051-.4561-1.0368-.9537-1.4929-1.5754-1.9491-.3321-.2075-.6642-.4146-.9952-.5391-.4152-.166-.7472-.2491-.7882-.2491-.4977-.1245-1.0783-.166-1.5345-.166l-.7877.083c-1.7009.2491-2.6132.5397-3.6499.8712-.9953.2901-1.9906.6637-2.9443,1.0368-1.9075.7052-3.691,1.4514-5.3915,2.1976-3.4419,1.4104-6.5107,2.5717-9.621,3.0273-6.3862.7467-13.4781,0-19.5748-1.9905-6.2206-1.9906-11.4045-5.4325-16.4223-9.6211-5.0179-4.1471-9.8281-8.8333-15.5932-12.6484-5.7225-3.6914-12.3583-6.5942-19.5327-6.8433-3.5249-.1655-7.1744.5397-10.1602,1.618-2.9858.9952-5.5575,2.1565-7.9626,2.9027-.9123.2906-1.825.4977-2.7372.6222.083-21.5653.1245-43.5036.2075-65.773,4.6447-3.9401,7.7551-9.6216,8.2942-16.0083,4.8103-1.6169,9.1234-4.5202,13.5611-6.9254,2.7368-1.4928,5.557-2.9027,8.4603-3.9395,1.9075-.6637,4.3957-1.2028,6.2622-.166,1.6584.8707,2.4876,2.6952,3.0273,4.3961.3731,1.1193.5801,2.4462,1.1613,3.4414.5801,1.0368,1.7414,1.9081,2.6952,2.5717,2.032,1.4099,4.4377,2.1981,6.8428,2.5297,12.3168,1.6174,25.1727-4.6032,34.4207-12.2343,3.6085-2.9858,6.9258-6.3452,9.7876-10.0356,1.3269-1.7005,2.6537-3.4425,3.9395-5.2254,2.7783-3.1934,5.1839-6.7598,6.9669-10.6169,1.4934-3.2348,2.5717-6.6352,3.0688-10.1602,1.825-10.7413-.3311-22.643-7.6715-30.9372-7.2575-8.3357-18.4134-12.3168-28.9882-11.8197,10.5748.4152,21.1081,4.8523,27.4118,13.105,6.5942,8.0457,8.1286,19.1181,6.1376,29.0713-1.9905,10.0362-8.1697,18.828-16.2148,25.1727-4.0226,3.1518-8.5018,5.765-13.2706,7.5065-2.3641.8292-4.8107,1.5344-7.1329,1.7004-2.3641.1656-4.4792-.3731-5.5574-1.7419-1.2444-1.3274-1.4514-3.608-1.7-6.3452-.2076-2.6952-.9127-6.0131-3.0688-8.4603-2.0736-2.6122-5.3915-3.815-8.3357-3.981-3.0278-.1661-5.8481.4151-8.5433,1.2443-5.3499,1.6589-10.2017,4.6032-14.3903,8.0867-4.3132,3.4839-7.7141,7.4649-11.6537,10.9074-2.4466,2.0735-4.9348,4.2296-7.5895,5.9716-4.4367-9.6631-5.3909-10.8244-6.4277-11.8612-.4561-.4556-.9122-.8707-1.4099-1.3269.2491-93.6829.3731-192.7158.3731-295.2321,4.8938-4.3132,7.9627-10.6169,7.9627-17.6252,0-6.5108-2.6543-12.4004-6.9259-16.63-.3316-.3316-.6637-.6637-1.0368-.9542,0-44.0003-.0415-87.3793-.0825-129.9697,9.0819-2.5302,17.5837-7.0919,24.5506-13.354,10.9894-9.7871,18.5374-23.6383,20.0718-38.4023.7052-7.6305.2486-13.9342.2901-20.6525l-.2486-19.9888-.5806-39.9782c-.8293-53.2902-2.4467-106.5809-4.8518-159.8296-2.4057,53.2487-4.0226,106.5394-4.8108,159.8296l-.6222,39.9782-.2075,19.9888c-.1246,6.5938.083,13.6442-.6217,19.2427-1.4934,11.7776-7.548,22.8921-16.5054,30.6886-4.8108,4.2712-10.4508,7.506-16.4639,9.5796-.0415-58.8472-.166-116.2435-.3321-171.6898,5.1424-4.3131,8.3773-10.7413,8.3773-17.9573,0-6.5112-2.6543-12.3998-6.9259-16.6714-.4976-.4976-.9953-.9538-1.5344-1.4099-.1245-46.6134-.2906-91.7754-.4561-135.2785,23.6803,24.9241,51.0921,46.4058,79.7487,65.5659,35.9141,23.5138,73.8597,43.5446,111.9304,62.9113,37.9876,19.4912,76.2238,38.2362,112.3449,60.3821,36.1216,22.0209,70.9159,46.5719,100.0287,76.8045,14.6804,15.012,27.9514,31.2688,39.3145,48.8115,11.4875,17.4591,20.4449,36.4527,27.8269,56.0269,14.6809,39.315,21.2331,81.4492,24.0949,123.6665,1.4509,21.1091,1.4509,42.3838,1.949,63.7415l1.2028,63.9895c.8293,37.1579.8708,74.2748.3316,111.4742-.3316.0831-.6637.1246-.9957.2076-7.7961,1.5759-18.9106,7.7966-26.7487,20.2379-7.8376,12.1507-11.9847,30.3566-7.2159,49.3501,1.1613,4.7283,3.0688,9.3725,5.4745,13.9763,1.1613,2.0735,2.4466,4.064,3.898,6.0546-.4146,1.4099-.8707,2.9858-1.4514,4.6862-1.5759,4.8108-4.0641,10.5333-7.7135,16.754-3.7325,6.1381-8.7919,12.8564-15.6762,18.662-3.525,2.7787-7.6306,5.1423-12.2753,6.4697-.5806.1245-1.1613.2906-1.7835.4151-.29.041-.6221.1655-.7052.124l-.9537.0831c-1.2438.083-2.5292.1655-3.815.2485l-.4982.0415h-.331l-1.0368-.1245-2.0321-.124c-1.2858-.0831-2.4471-.2486-3.733-.5807-10.0771-2.3226-19.7817-10.4508-23.8458-21.5232-4.1056-11.156-1.949-24.6756,4.0641-36.3287,3.0278-5.8476,7.1749-11.4045,11.363-17.0866,4.1061-5.4739,8.6263-10.7818,13.5196-15.8417.1245-.124.2076-.207.3321-.3316l12.3998-12.6488-15.0125,9.414c-.124.083-.2901.166-.4146.2905-9.9532,6.2207-18.9941,14.2658-27.1638,23.3893-11.3215,12.8564-18.4544,29.5279-17.5836,46.0748.7877,16.5884,9.8701,31.3103,21.7723,40.3097,6.0131,4.5617,12.7319,7.8376,19.7402,9.4555,1.659.3726,3.3594.7462,5.0179,1.1193,1.7834.1246,3.5254.2491,5.2669.4146,1.7004.1246,3.4009.2491,5.0593.3321,1.742-.0415,3.4424-.166,5.1009-.3736,7.3404-.9537,14.1007-3.1933,20.1138-6.3037-9.2479,21.6483-19.5742,42.7984-31.3108,63.1194Zm62.5387-95.1349c-.1661.2076-.2906.4151-.4567.6222-4.9763,6.8013-11.2385,14.1417-19.5327,20.57-2.6537,2.0735-5.5154,4.0225-8.5848,5.764-.207.1245-.4141.2491-.6216.3736-6.6768,3.6905-14.2658,6.5107-22.56,7.506-1.5765.166-3.1104.2491-4.6453.2901-1.5754-.1241-3.1933-.2901-4.8103-.4141-1.5764-.1246-3.1933-.2491-4.7692-.4152-1.659-.373-3.3174-.7461-4.9769-1.1198-6.3452-1.5339-12.6483-4.6442-18.1638-8.9158-11.0314-8.5018-19.3672-22.1874-19.9893-37.407-.7877-15.2201,5.8885-30.8542,16.5884-43.047,3.4424-3.857,7.0914-7.506,10.8654-10.8654-.3731.4146-.7052.8708-1.0368,1.3269-4.1886,5.723-8.4182,11.4045-11.6531,17.6667-6.3037,12.4828-8.6263,27.0392-3.94,39.4805,4.6862,12.3168,15.303,20.9841,26.583,23.4728,5.9716,1.0783,10.9069,1.0368,16.4639-.3736,5.1424-1.5339,9.5386-4.2302,13.2291-7.2575,14.2247-12.7729,20.1553-27.3708,23.0581-37.1164.3736-1.3273.7052-2.6126.9953-3.7735,1.4103,1.8245,2.9858,3.6075,4.6452,5.308,4.0226,3.9815,8.9989,7.4234,14.5974,9.7456,2.5712,1.1198,5.2669,1.9905,8.0456,2.5716.2071.0826.4147.1241.6217.1656-.2486.4976-.5386.9953-.8292,1.4929-2.4472,4.3546-5.3915,9.2064-9.1234,14.3488Zm11.7776-15.5516c1.9905.3321,4.0226.4981,6.0546.4981,2.6127,0,5.1839-.2491,7.7136-.7882,1.2858,9.8701,1.866,19.8643,1.7004,29.7764-.124,6.1377-.4976,12.3168-1.2023,18.4544-1.6179-.4146-3.2764-.8707-4.8938-1.2028l-5.723-.5386c-2.3227-.083-4.5623.041-6.7598.3311-.6222-5.681-.9543-11.3631-1.0368-17.0441-.1661-7.7555.1655-15.5516.9537-23.3072,1.1614-2.1566,2.2391-4.2301,3.1934-6.1791Zm-83.3982,232.9431c-6.8844-3.3589-10.4093-11.073-9.5801-17.5837.6637-6.6768,5.0178-11.8192,9.5386-14.1418,4.5617-2.4051,9.0404-2.4467,11.9436-2.032,2.8618.4151,4.4787,1.0782,4.6863.7877h.0415c-.166.2905,1.3268,1.2028,3.4419,3.3178.9128.9123,1.908,2.1151,2.8618,3.6495-1.1613.7882-2.3226,1.7835-3.4009,2.9863-4.0226,4.3127-6.7598,11.9847-4.4377,19.8643.2906.9953.6642,1.991,1.1198,2.9448-4.7273,2.4877-10.9064,2.9443-16.2148.2071Zm51.7142-2.4882c-2.5711,6.0131-9.3725,10.8239-16.962,10.4093-5.3909-.2491-10.1187-3.0689-13.1045-6.9674-.8707-1.0778-1.5759-2.2391-2.0735-3.4834-.2906-.5807-.5392-1.1613-.7047-1.783-2.1151-6.3452-.2076-12.8149,2.9858-16.7545.7462-.9537,1.5339-1.7419,2.3221-2.4471.7052-.6632,1.4099-1.2023,2.1151-1.6169,2.032-1.4104,4.023-2.1981,5.64-2.6548,2.9027-.8292,4.6447-.8292,4.6447-1.2023,0,.3731,1.7005.5807,4.4787,1.659,2.7377,1.0367,6.6358,3.3179,9.414,7.672.9123,1.3684,1.618,2.9448,2.1151,4.7278-1.4099,3.6494-1.9075,8.0036-.8708,12.4413Zm36.9919,1.6174c-2.4877,6.0546-9.3725,11.0315-17.0025,10.5748-7.5895-.29-13.8932-5.764-15.8422-11.9847-.0416-.083-.0416-.1245-.0831-.2075-1.4514-4.3132-1.0367-8.6678.3736-12.2753.7047-1.7004,1.5754-3.2348,2.6122-4.4792,3.1934-4.1056,7.2575-5.9301,10.1192-6.7598,2.8618-.7877,4.6033-.8292,4.6033-1.1608,0,.3316,1.7414.5387,4.5207,1.6169,2.7367,1.0783,6.5932,3.3179,9.372,7.7141,2.8202,4.2301,4.0645,10.8234,1.3268,16.9615Zm40.3928,0c-2.5292,6.0546-9.372,11.0315-17.0441,10.5748-7.6725-.29-13.9762-5.8885-15.8837-12.1922-2.1151-6.3452-.2076-12.8149,2.9858-16.7545,3.1933-4.1056,7.2574-5.9301,10.0777-6.7598,2.9033-.7877,4.6447-.8292,4.6447-1.1608-.0415.3316,1.7005.5387,4.4792,1.6169,2.7367,1.0783,6.6348,3.3179,9.414,7.7141,2.7783,4.2301,4.0641,10.8234,1.3264,16.9615Zm28.2005-28.7396c3.1518.5806,7.7141,2.2396,11.5706,6.3867,3.815,3.981,6.4282,10.8238,4.7277,17.9157-1.5344,7.0084-7.9626,13.6852-16.2568,14.6805-8.2942,1.1198-16.2148-3.691-19.4497-10.0777-3.4839-6.4277-2.6542-13.7267.0415-18.5375,2.6537-4.9763,6.6768-7.755,9.5386-9.0819,2.5707-1.2443,4.3126-1.6589,4.6442-1.9905.0415-.0415.083-.083.083-.1246.0415.3731,1.9075.2076,5.1009.8293Zm-5.1424-31.3109c.0415,6.4697.1246,12.0272.1661,16.5884,0,3.4425,0,6.3037-.0831,8.5433-6.4282.083-11.7776,3.3594-11.7776,3.3594-4.8523,2.9443-7.3405,6.9669-8.3772,8.9159-.9538-1.0368-9.2895-9.7041-21.8554-8.4598-10.0776.9953-16.0492,7.7136-17.3351,9.2065-1.3268-1.3269-10.4508-9.9947-23.4307-8.5428-7.2159.7877-12.2338,4.3957-14.4734,6.2207-1.1198-1.3274-7.1744-8.1287-17.0865-8.5433-5.9716-.2491-10.4918,1.9075-12.5239,3.0688-1.3268-1.3689-4.2716-4.0226-8.7088-5.557,0-.6637.0415-1.4098.083-2.2811,0-.9122.0831-1.949.1241-3.0688.2485-5.3909.7467-13.271,1.4513-23.2237,7.7141,3.732,34.7533,6.4282,66.9349,6.4282,32.0155,0,58.8887-2.6547,66.8093-6.3452.0415,1.2444.083,2.4882.083,3.6905Zm-38.6923-96.3372c8.0872,6.7188,14.7219,14.9715,20.0303,23.4728,5.4745,8.5018,9.041,17.5837,12.0683,26.2095,1.2438,4.3962,2.6957,8.6263,3.4004,12.8564.4151,2.1151.8707,4.1886,1.2858,6.2207.2491,2.032.4976,4.0225.7462,6.0131.2076,1.949.4566,3.898.6637,5.7645.083,1.908.1245,3.7325.2075,5.557.0411.7052.0411,1.4104.0826,2.115-8.0452-3.6079-34.8353-6.2621-66.6848-6.2621-31.933,0-58.8067,2.6542-66.7688,6.3037.1245-2.9858.2076-6.0962.4561-9.3725.2901-2.2812.5807-4.6448.9128-7.0499.124-1.2028.29-2.4472.4556-3.6495.249-1.2438.5396-2.4882.7882-3.7325.5806-2.4881,1.0368-5.0593,1.7004-7.672.7878-2.5297,1.5755-5.1424,2.3637-7.8381,1.908-5.2254,3.8985-10.6584,6.6352-15.9248,1.2029-2.7372,2.7788-5.3499,4.3547-7.9626,1.4514-2.6542,3.2349-5.1839,5.0593-7.7135,3.5255-5.1424,7.8381-9.8702,12.3999-14.3494,4.8107-4.1471,9.8291-8.4182,15.5516-11.0724,5.6405-2.7783,11.5706-4.5617,17.2106-4.3547,1.1613.1246,2.3221.2491,3.4834.2906l3.567.9122c1.2023.2076,2.3636.6637,3.5244,1.1614,1.1613.4976,2.3641.9122,3.5254,1.4513,4.5618,2.4052,9.0405,5.1424,12.9805,8.6258Zm12.939-129.9286c-.1246.9953-.2076,2.032-.3321,3.1103-.4141,2.8203-.9953,5.6815-1.8245,8.5013-1.1198,3.816-2.7783,7.548-4.7688,11.1145-2.115,3.5249-4.6452,6.8428-7.631,9.704-6.0131,5.7651-13.9757,9.4556-22.3945,9.4971-.2486,0-.4561,0-.7052-.0415-.4141,0-.7877,0-1.2023-.0831-7.7136-.4971-14.9295-4.064-20.487-9.3725-2.9858-2.8612-5.5154-6.1791-7.6305-9.704-1.9905-3.5665-3.6495-7.2985-4.7693-11.1145-4.4787-15.3856-2.032-30.9372,3.691-41.6781,5.474-10.6163,13.5196-16.7955,19.8233-19.6988.2071-.124.4561-.2485.6637-.3315.0415,0,.0415-.0416.083-.0416,6.3452-2.8202,10.5333-3.1933,10.5333-4.2301.0415-.6222-3.5664-1.866-10.1602-.8292,2.6542-37.0339,3.774-74.1923,4.7278-111.2672l.8707-64.0725c.166-21.2747.4976-42.7154-.4561-64.2387-.8298-21.4822-2.8618-42.9644-6.5523-64.2801-3.65-21.2747-8.7508-42.4248-16.1743-62.8703-7.3815-20.4039-16.754-40.2687-28.6146-58.5571-11.7782-18.3714-25.5048-35.3749-40.6419-50.9265-30.3565-31.1448-66.0215-56.1935-102.8894-78.2144-37.0338-21.8963-75.6846-40.5583-114.1284-58.9717-38.3607-18.5795-76.5974-37.324-112.9671-59.3448-29.6934-17.9158-57.8109-38.5268-82.9836-62.4972-.1246-38.0701-.2901-74.8554-.4977-110.1473,13.7272,4.9768,28.2006,10.2017,43.3786,15.6346,62.6632,22.3115,137.3111,48.853,220.1702,78.3804,41.388,14.805,85.2227,29.4859,129.7626,46.3649,44.2913,17.044,89.9094,36.6602,127.731,69.1734,9.5381,7.9211,18.3719,16.6299,26.9147,25.5048,4.0226,4.6447,8.0456,9.2895,12.0682,13.8927,3.9396,4.6863,8.2112,9.0819,11.6116,14.1003,7.0919,9.8701,14.6809,19.2841,20.653,29.6934,3.1103,5.1008,6.2622,10.2017,9.3725,15.2195,2.7367,5.2669,5.4735,10.5338,8.2112,15.7592l4.1056,7.7966c1.3269,2.6127,2.3636,5.3494,3.6075,8.0042,2.3226,5.3494,4.6867,10.6578,7.0088,15.9657,2.2391,5.3499,4.0231,10.8244,6.0551,16.1743,1.9906,5.391,4.0641,10.6994,5.5565,16.1733,1.6595,5.433,3.3179,10.8654,4.9353,16.2154,1.4929,5.4324,2.7373,10.8654,4.1056,16.2568.6637,2.6952,1.3269,5.3909,1.9911,8.0866.5386,2.6958,1.0783,5.3915,1.5754,8.0867,1.0368,5.4329,2.2396,10.7414,3.0688,16.1323,2.5302,14.888,4.2716,29.6104,5.3499,44.1668.1661,2.5296.3321,5.0178.4977,7.548.207,3.815.4146,7.6305.5391,11.4045.2906,10.2433.4976,20.4035-.2906,30.2321-.9122,9.9531-1.7829,19.7402-2.6537,29.3613-5.0178,38.3192-14.9715,73.197-27.2052,103.6776-12.2753,30.5232-26.6656,56.8157-41.0145,78.795-14.4733,21.8554-28.5741,39.6051-40.6418,53.6223-12.0682,14.0173-22.353,24.0945-29.2373,31.0618-.9122.9128-1.783,1.742-2.5712,2.5297-2.7787.166-4.2296.7882-4.1886,1.2028,0,.4146.6222.7047,1.825,1.0783.5801.2076,1.2853.4561,2.1566.7462,1.7414.4981,4.0225,1.2858,6.6347,2.4472,6.3867,2.7782,14.8055,9.0404,20.487,20.0303,4.2716,8.0041,6.7183,18.745,5.8476,30.0665Z"/>
  <path d="m1208.79821,1287.6762c2.032-.4561,4.1055-.8707,6.1791-1.1198,1.0368-.1655,2.0736-.2485,3.1103-.3316l1.5765-.1245h.4141l.2075-.0415c0-.0415.2076.166.3736-.2901-.4566-.5391-.5811-.2901-.8712-.4561-4.1471-.8297-8.2942-1.6174-12.3998-2.6132-15.9248-3.732-31.6009-8.9159-46.4064-16.0073-.207.1246-.3726.2486-.5801.4146-3.8981,2.6127-7.7966,5.2664-11.6537,7.9211-43.2125,29.3199-97.6645,43.3371-149.7104,41.5951-42.6733-1.3683-85.7208-14.0172-117.1972-43.3785l.4146-.4146c6.2622-6.2622,11.3215-13.3536,16.1323-20.2794,4.8523-6.9259,9.4555-13.7267,15.0955-19.6163,5.599-6.0131,11.8607-11.4045,18.579-16.1318,13.5196-9.414,29.0297-16.0908,45.2035-19.7817,16.1739-3.7325,33.0939-4.6033,49.4752-1.3274,16.4224,3.1103,32.1816,9.414,47.1106,17.1696,14.9715,7.713,29.1958,16.837,43.255,26.1264l20.9011,14.2248c6.9258,4.8103,14.1418,9.2065,21.7308,12.897-7.589-3.732-14.7635-8.1697-21.6478-13.0215l-20.8185-14.3488c-13.9758-9.4555-27.993-18.9111-42.881-26.9147-7.3819-4.0646-15.0545-7.7141-22.8506-11.0319-7.8796-3.0274-15.8837-5.9301-24.2609-7.6716-16.63-3.857-34.1721-3.4839-50.8851-.2075-16.7955,3.3178-33.0523,9.7456-47.5257,19.1596-7.2159,4.7277-13.9752,10.2017-20.0718,16.3398-6.1792,6.1377-11.3215,13.1875-16.2568,19.9888-5.0594,7.0089-10.2018,13.8927-16.1734,19.4912-5.5989,5.2254-11.9441,9.3725-19.7402,11.3636-.7467.4141-1.4519.29-3.1103,2.2391-.4152.5391-.7467,1.3683-.8293,2.2806-.083.8297.0826,1.6594.3311,2.2811.4982,1.1613.9543,1.4934,1.3274,1.949,1.4934,1.3689,2.3641,1.7835,3.691,2.4887,2.5296,1.2438,4.8107,1.6584,6.6767,2.2396.9538.2485,1.783.5386,2.4472.8292.3316.166.6217.2901.8707.4561l1.0368.7467,5.1424,3.815c6.9668,4.9763,14.1412,9.6631,21.5232,13.9757,29.6519,17.1276,62.5802,28.5737,96.5032,33.1354,33.8821,4.4372,68.5518,2.2811,101.4381-6.3032,8.2112-2.1151,16.3398-4.6452,24.3025-7.5895,8.0036-2.7783,15.8002-6.3037,23.3062-10.2017,15.0545-7.7971,29.1542-17.1281,44.0842-24.9242,7.4235-3.857,15.2196-7.1329,23.4308-8.9994Z"/>
  <path d="m884.12111,1160.4843c1.0368-.9122,2.1151-1.8245,3.1934-2.6952,12.7734-10.1607,28.159-16.713,43.5446-22.9336,33.5504-13.5196,67.1004-27.7024,102.4753-32.3061,17.5837-2.4052,35.4989-2.3227,52.7926,1.1613,17.2936,3.3179,33.965,10.3677,49.5997,18.8695,31.0203,17.8323,59.7179,40.6413,82.776,68.7173-3.1518-6.8013-7.7555-15.8417-14.1832-25.9609-4.9769-7.8381-17.8738-27.1217-40.9735-48.3554-21.9383-20.1959-42.5078-39.1069-73.6111-47.4841-17.6252-4.7278-31.808-3.7325-59.4283-1.576,0,0-61.0038,4.8108-143.9874,45.9083-4.6027,2.2396-20.4865,10.2847-19.6157,18.3304.166,1.3268,1.0367,2.8202,2.8202,5.8475,1.0368,1.7,3.3589,5.3915,9.9117,12.1508,1.2858,1.3273,2.8612,2.9442,4.7687,4.7277-.9952.8713-1.949,1.742-2.8612,2.6542-6.6353,6.6768-11.5706,14.6394-15.4686,22.8921-4.1056,8.1282-7.299,16.796-9.2065,25.6704,2.7782-8.6673,6.5938-16.837,11.1555-24.6336,4.3961-7.8796,9.7046-15.1785,16.2978-20.9846Z"/>
  <path d="m733.12541,1375.3461c-7.5896,0-13.7687,15.178-13.7687,33.8815s6.1791,33.841,13.7687,33.841,13.7686-15.1375,13.7686-33.841-6.1791-33.8815-13.7686-33.8815Z"/>
  <path d="m732.75181,358.7246c-7.5886,0-13.7267,15.1786-13.7267,33.882s6.1381,33.8816,13.7267,33.8816c7.631,0,13.7686-15.1781,13.7686-33.8816s-6.1376-33.882-13.7686-33.882Z"/>
  <path d="m732.75181,745.4007c7.631,0,13.7686-15.1371,13.7686-33.8406s-6.1376-33.8815-13.7686-33.8815c-7.5886,0-13.7267,15.1781-13.7267,33.8815s6.1381,33.8406,13.7267,33.8406Z"/>
  <path d="m732.75181,1103.0885c7.631,0,13.7686-15.137,13.7686-33.8405s-6.1376-33.8815-13.7686-33.8815c-7.5886,0-13.7267,15.178-13.7267,33.8815s6.1381,33.8405,13.7267,33.8405Z"/>
  <path d="m732.75181,1693.5119c-7.5886,0-13.7267,15.1785-13.7267,33.882,0,18.662,6.1381,33.8405,13.7267,33.8405,7.631,0,13.7686-15.1785,13.7686-33.8405,0-18.7035-6.1376-33.882-13.7686-33.882Z"/>
  <path d="m732.66921,1997.951c-7.6305,0-13.7681,15.1786-13.7681,33.8821,0,18.6619,6.1376,33.84,13.7681,33.84,7.5891,0,13.7682-15.1781,13.7682-33.84,0-18.7035-6.1791-33.8821-13.7682-33.8821Z"/>
  <path d="m580.30461,1648.6814c-9.1239-35.7475-22.31143-70.4177-39.23192-103.0964-17.1271-32.5967-37.9871-62.9948-61.7085-90.8217l15.7172,22.4359c2.6957,3.6905,5.1429,7.5475,7.5475,11.4046l7.299,11.5701c2.5302,3.774,4.6867,7.7965,6.8848,11.7776l6.6348,11.9442c2.2811,3.898,4.2301,8.0451,6.2206,12.1507l5.9306,12.2338c15.4276,32.8867,27.1217,67.432,35.29192,102.6823,8.0042,35.3335,12.7314,71.3716,13.8097,107.5347,1.2858,36.1626-.6632,72.4498-5.5155,108.3224-4.6447,35.9136-12.2757,71.496-21.56523,106.6219-9.165,35.1674-20.528,69.7546-32.6787,104.0928-24.6756,68.5927-53.6223,135.7346-81.9054,203.1666,32.6372-65.3999,64.57032-131.339,90.9458-199.8078,26.5-68.3032,47.52572-139.3011,57.52032-212.4151,4.7693-36.5772,6.6353-73.5696,4.9768-110.4369-1.7834-36.8678-6.8428-73.6526-16.1738-109.3597Z"/>
  <path d="m485.79189,733.5815c2.1151-3.3594,3.8986-6.9253,5.35-10.4508.7467-1.6584,1.3268-3.691,1.949-5.5569.5391-1.9081,1.40992-3.7741,1.57592-5.7231l.99528-5.8475c.3736-1.9075.249-3.8986.3736-5.8061.33112-3.898-.1246-7.7135-.4151-11.5706-1.576-15.261-7.0499-29.4853-13.8512-42.6318-13.8927-26.2925-34.6698-48.48-59.3033-64.2802-12.11028-8.1701-25.1317-15.2615-39.108-19.4917-13.0629-4.1886-27.37028-4.8517-40.47528-.9122,13.14658-3.7735,27.41238-2.9443,40.30978,1.3689,13.8927,4.4371,26.4585,12.0262,38.2777,20.4449,23.7218,16.7545,42.6739,39.7296,54.7006,65.6075,5.847,12.98,10.2432,26.7486,10.9064,40.6413.083,3.442.2906,6.8844-.1656,10.2438-.207,1.6999-.1655,3.4419-.5806,5.0593l-1.1198,4.8933c-.2076,1.659-1.0783,3.1103-1.5754,4.6863-.6227,1.5344-1.0368,3.0278-1.908,4.6862-1.4929,3.1103-3.0689,6.0546-4.9354,8.7919-3.6489,5.4329-8.33568,9.8286-13.8512,12.2342-5.5569,2.5297-11.1559,2.4052-18.6204,1.783-3.7325-.2901-7.9626-.4976-12.4413.3321-4.4787.8292-8.7089,2.6952-12.3583,5.3084-3.774,2.6537-6.9674,6.6348-8.8334,10.4503-1.949,3.774-3.1518,7.2159-4.5617,10.0362-4.8938,11.28-17.4597,17.1685-30.6887,18.952-13.229,1.7005-27.5783.4146-39.8121-4.8108-12.1927-5.2669-22.3945-14.9705-29.7349-26.7901-7.382-11.8607-12.06768-25.5043-15.1781-39.439-6.1791-28.0345-5.765-57.5614.7878-85.8449,3.3594-14.0588,8.1281-28.0345,16.0492-40.2682,7.6306-12.3168,19.1181-22.3945,32.8038-27.5374-13.7272,5.0184-25.3808,14.9715-33.21838,27.2883-8.12812,12.1507-13.51962,26.0024-17.33512,40.1022-3.691,14.1423-6.5522,28.5741-7.3815,43.296-.8712,14.6809-.2075,29.4859,2.19762,44.1253,2.48818,14.5979,6.59378,29.1958,13.93418,42.5493,7.299,13.2291,18.2474,25.4218,32.72082,32.2646,7.13338,3.4835,14.76338,5.35,22.43588,6.5108,7.67212,1.0783,15.4687,1.3683,23.3067.4146,7.7966-.9538,15.6347-3.1104,22.9332-7.1744,3.6499-1.9491,7.0088-4.6448,10.0781-7.6721,3.0274-3.0688,5.4735-6.8428,7.2575-10.4923,1.8245-3.691,2.9858-7.1744,4.3541-9.8701,1.3684-2.7367,2.9033-4.5617,5.0179-6.1792,4.6447-3.4834,9.74562-4.1886,16.8785-3.6079,3.5254.2075,7.548.5391,11.77812.083,4.27168-.3731,8.58478-1.5759,12.44128-3.4419,7.7966-3.691,13.8102-9.9947,18.0398-16.7545Z"/>
  <path d="m497.27949,601.2888c-10.4923-19.0766-23.38968-36.7848-38.4022-52.5856-14.888-15.8002-31.767-30.025-50.9261-40.6828-9.5801-5.2254-19.6988-9.6626-30.2326-12.6899-10.53378-3.0273-21.5237-4.7282-32.5136-4.8938-11.031-.1655-22.1039,1.4929-32.59618,5.0184-10.49182,3.4829-20.36252,8.7498-29.23682,15.3025-17.7497,13.1875-31.3939,30.9788-41.80318,50.1384-10.40922,19.2426-17.83272,40.0197-22.35242,61.3358-4.4792,21.3162-6.3452,43.2956-4.2717,65.0269,2.03212,21.7308,7.8376,43.0464,17.00312,62.7867,4.43718,9.9532,9.99458,19.3672,16.17378,28.3251,6.0961,8.9989,13.229,17.2931,20.9426,24.9241,7.6305,7.7131,16.2153,14.5149,25.2972,20.445,9.0409,6.0131,18.7865,10.9069,28.9467,14.7224,39.0249,15.012,84.4355,13.7266,121.7595-5.1839-37.407,18.7035-82.7346,19.7818-121.5519,4.6032-10.1187-3.774-19.7403-8.8333-28.6561-14.9295-8.9584-5.972-17.3767-12.8564-24.8827-20.5699-7.548-7.6721-14.5149-16.0078-20.4869-24.9652-5.9721-8.9584-11.3631-18.3304-15.67618-28.2005-8.83342-19.6572-14.30732-40.8079-16.00782-62.2066-1.8245-21.3992.3736-43.047,4.8933-64.0311,4.5622-20.9846,11.9442-41.43,22.2289-60.216,10.2848-18.745,23.7629-36.0386,40.8904-48.687,8.5428-6.3452,17.9983-11.446,28.0345-14.8469,10.07772-3.401,20.694-5.0594,31.3104-4.9764,10.6168.1246,21.2751,1.7,31.5184,4.6033,10.2847,2.9027,20.1543,7.1744,29.5683,12.2752,18.7865,10.3263,35.7071,24.0119,50.595,39.5636,15.0125,15.4271,28.0345,32.8452,38.6508,51.5897,10.4093,18.828,18.496,39.1074,22.7261,60.2991,2.1566,10.5748,3.4009,21.3162,3.6915,32.0986.1655,10.8238-.7467,21.6477-2.6132,32.2646-3.649,21.3161-11.7777,41.8026-23.4308,60.0084-10.45078,15.7172-23.84578,29.6935-39.7296,40.0197,15.96682-10.2017,29.4449-24.1364,39.9782-39.8541,11.77762-18.1638,20.0303-38.6918,23.7633-60.05,1.9075-10.6994,2.9858-21.5233,2.94432-32.3886-.166-10.8654-1.32732-21.6893-3.31792-32.3472-4.0225-21.3997-11.90208-41.9276-22.2284-61.0457Z"/>
</svg>